<?xml version="1.0" encoding="utf-8"?>
<!DOCTYPE svg PUBLIC "-//W3C//DTD SVG 1.1//EN"
  "http://www.w3.org/Graphics/SVG/1.1/DTD/svg11.dtd">
<svg version="1.1" xmlns="http://www.w3.org/2000/svg"
  width="100" height="100" viewBox="0 0 100 100">
  <path d="M93.0893089308931,63.63678429221721L95.46954695469547,64.70454745340203L97.27972797279729,67.57516700734112L94.67946794679469,66.55032899836473ZM60.43604360436044,63.8728726293636L62.24622462246225,64.97282965470475L59.41594159415942,67.61809215954956L58.06580658065807,65.60597564977917ZM87.70877087708772,58.44820651902262L86.7986798679868,59.430119375790575L81.62816281628163,57.09069858043087L81.06810681068107,56.6399844822423L74.54745474547455,56.602424974059915L69.90699069906991,54.246907246622044L68.48684868486849,54.788837293253536L63.66636663666367,60.09545923502132L62.506250625062506,58.42137829889235L63.0963096309631,55.4756397285885L59.07590759075908,59.89693040605731L60.396039603960396,61.21151319244063L51.705170517051705,69.72679026178893L42.964296429642964,72.22181473390421L45.93459345934593,69.51216450074675L48.494849484948496,68.6375645244999L53.18531853185319,65.02112045093924L54.35543554355436,61.098834667893485L51.25512551255126,60.996887431398456L51.705170517051705,61.87148740764532L48.51485148514852,60.65885185775703L47.50475047504751,59.811080101640435L46.904690469046905,56.57023110990359L43.884388438843885,57.09069858043087L44.594459445944594,54.03228148557987L42.054205420542054,52.18649994061717L43.51435143514352,48.95101659290637L50.18501850185019,45.61895165272661L50.20502050205021,42.22249898423418L47.68476847684769,43.783901395816L43.33433343334334,42.29225235657289L43.70437043704371,40.11916652602086L41.61416141614161,38.86360582392414L46.65466546654666,36.69588563739817L49.18491849184919,38.59532362262142L51.54515451545155,37.2217187519515L47.68476847684769,35.198870954129L45.10451045104511,31.024399901858693L47.92479247924793,29.704451471449318L50.76507650765077,26.38848346334771L56.5956595659566,23.319335080444603L62.66626662666267,26.32409573503506L64.26642664266427,25.723143604116963L73.15731573157316,27.06455461063056L78.67786778677868,54.912247105852785L81.47814781478148,54.99809741026966L84.93849384938494,57.8740826082348L87.17871787178719,54.456167363638166L91.52915291529153,57.498487526411L95.67956795679568,62.000262864270624L98.91989198919893,62.37049230206838L99.45994599459947,66.55569464239079L97.2897289728973,63.41142724312292L89.51895189518952,58.2979684862931Z" fill="#95AABC"></path>
</svg>