<?xml version="1.0" encoding="utf-8"?>
<!DOCTYPE svg PUBLIC "-//W3C//DTD SVG 1.1//EN"
  "http://www.w3.org/Graphics/SVG/1.1/DTD/svg11.dtd">
<svg version="1.1" xmlns="http://www.w3.org/2000/svg"
  width="100" height="100" viewBox="0 0 100 100">
  <path d="M47.81953275883761,0.7300730073007315L69.00667138245353,0.9600960096009601L76.49347277108704,44.95449544954495L77.96409447242577,49.66496649664966L80.37693267505512,53.97539753975397L79.74666623162423,56.33563356335633L81.82845539325956,57.61576157615762L78.77261809177651,60.36603660366036L78.96360792311918,62.60626062606261L77.3911249783977,66.45664566456645L79.18006306530756,73.12731273127312L78.00229243869431,78.44784478447845L80.00768566779257,83.91839183918393L59.86462478885002,84.12841284128413L33.41889947559866,83.78837883788378L32.73133608276497,86.52865286528653L36.76758785180718,90.55905590559055L35.99089587101357,93.98939893989399L36.80578581807572,95.7995799579958L33.890007726243965,98.90989098909891L29.452677311382093,99.73997399739974L30.356695846404165,98.43984398439844L27.625541258203675,95.84958495849585L27.224462612384023,89.56895689568957L25.893900120696607,89.13891389138914L24.48057536876069,92.6092609260926L24.015833445826804,96.60966096609661L18.82091003330559,96.22962296229623L18.17154460674044,64.79647964796479L23.06725061682477,26.162616261626155L26.205850178556336,2.460246024602455L24.46147638562642,0Z" fill="#95AABC"></path>
</svg>