<?xml version="1.0" encoding="utf-8"?>
<!DOCTYPE svg PUBLIC "-//W3C//DTD SVG 1.1//EN"
  "http://www.w3.org/Graphics/SVG/1.1/DTD/svg11.dtd">
<svg version="1.1" xmlns="http://www.w3.org/2000/svg"
  width="100" height="100" viewBox="0 0 100 100">
  <path d="M6.540654065406541,6.483570641905885L26.472647264726476,6.876751913086338L63.71637163716372,7.034024421558513L89.42894289428943,6.702004681450575L91.34913491349135,11.507553551433872L88.24882488248825,14.513205935568863L85.16851685168517,19.248855912897852L98.68986898689869,18.820725195390253L99.81998199819982,21.63415562472592L96.49964996499651,24.96309038738707L93.84938493849386,25.52228152862149L95.85958595859586,28.064853748921735L92.19921992199221,30.249194144368687L91.92919291929194,33.814037669738106L90.05900590059007,37.51867898041613L91.64916491649166,38.23514263012273L91.36913691369138,40.85635110465907L88.92889288928893,43.250388178068924L87.30873087308731,42.88341899163383L88.30883088308832,46.11624277689532L84.93849384938494,48.1345733022883L83.44834483448345,47.374422844672765L83.82838283828383,52.17997171465605L81.4081408140814,53.385727612942766L82.40824082408241,54.97592742082814L81.73817381738174,58.54077094619756L78.07780778077809,59.73778948290249L78.37783778377838,61.266827759715355L76.15761576157617,63.739501087361305L74.35743574357436,63.07546160714543L75.0975097509751,68.34409064096347L71.27712771277128,69.88186627935812L73.41734173417342,74.25054707025201L70.43704370437044,74.3291833244881L71.57715771577158,77.43094668602276L68.66686668666867,77.36978515495025L70.47704770477048,78.986197047581L68.61686168616862,79.69392333570582L68.43684368436844,82.46366695713255L70.81708170817082,82.62093946560472L70.33703370337034,84.34219969721691L71.51715171517152,90.28360557283261L69.14691469146915,91.10491756152067L69.8969896989699,93.68243922814807L51.00510051005101,93.6562271434027L9.73097309730973,92.9397634936961L9.990999099909992,79.71139805886939L6.020602060206021,78.68912675380021L2.8302830283028304,79.72013542045117L0.8500850085008501,77.36978515495025L3.0703070307030704,33.80530030815632L0,6.317560771851916Z" fill="#95AABC"></path>
</svg>