<?xml version="1.0" encoding="utf-8"?>
<!DOCTYPE svg PUBLIC "-//W3C//DTD SVG 1.1//EN"
  "http://www.w3.org/Graphics/SVG/1.1/DTD/svg11.dtd">
<svg version="1.1" xmlns="http://www.w3.org/2000/svg"
  width="100" height="100" viewBox="0 0 100 100">
  <path d="M71.44409015510917,1.0401040104010377L91.72130037951374,1.0401040104010377L92.51631747515862,74.03740374037403L92.73858031910234,99.92999299929993L62.425347833546404,99.95999599959995L31.582103950893895,88.05880588058805L7.287065393660405,78.24782478247825L9.133556712577517,73.92739273927393L12.638470790151667,72.32723272327232L12.022973683845962,69.06690669066907L9.783248102566873,68.7968796879688L9.355819556521244,62.346234623462344L12.339270807919727,59.945994599459944L12.458950800812502,53.41534153415341L14.074630704864976,50.645064506450645L18.49424187097677,47.05470547054705L15.664664896154711,44.354435443544354L13.980596424734937,39.71397139713971L11.723773701614022,36.52365236523652L11.775065127139499,32.743274327432744L12.843636492253568,32.19321932193219L11.604093708721248,25.77257725772577L10.997145173336456,15.64156415641564L12.809442208569918,14.63146314631463L16.49387627548323,14.791479147914785L18.306173310716694,17.141714171417135L21.152847427380575,14.1014101410141L21.631567398951677,0L34.651040911501504,0.48004800480048004L61.79275358539888,1.0301030103010191Z" fill="#95AABC"></path>
</svg>