<?xml version="1.0" encoding="utf-8"?>
<!DOCTYPE svg PUBLIC "-//W3C//DTD SVG 1.1//EN"
  "http://www.w3.org/Graphics/SVG/1.1/DTD/svg11.dtd">
<svg version="1.1" xmlns="http://www.w3.org/2000/svg"
  width="100" height="100" viewBox="0 0 100 100">
  <path d="M22.34015656811729,0.11001100110011919L40.77408940986677,0.08000800080009185L41.48962295054603,31.963196319631976L89.6003093919679,72.07720772077208L92.71288029392267,77.71777177717772L94.61798834598122,79.13791379137913L91.44280825921697,83.46834683468347L91.88107255288304,87.44874487448745L90.21745707080376,89.20892089208921L91.01348813480942,93.02930293029303L93.03487038722835,94.96949694969497L90.87932559593207,96.50965096509651L69.20760348260893,100L66.90000781391831,93.58935893589359L65.28111317813148,91.58915891589159L59.56578902195588,87.30873087308731L58.045280248012446,87.93879387938794L55.69296373302937,84.4984498449845L52.177905214442504,84.57845784578458L46.13164679570274,80.72807280728074L38.43966123340068,80.5980598059806L36.85654327464781,79.13791379137913L36.74026907428743,73.15731573157316L31.105442441438246,67.6867686768677L25.08601653047396,57.955795579557964L26.695966997002298,55.48554855485549L21.445739642268215,51.38513851385139L20.524490208643666,45.13451345134514L23.95010703464563,48.0948094809481L21.785618074090863,42.66426642664267L20.837536132690843,44.65446544654466L16.964710843764337,42.33423342334234L17.92173695442285,41.80418041804181L15.426313731303926,37.94379437943795L10.426523115807585,32.53325332533254L9.65732455957738,23.10231023102311L5.623504223998042,18.50185018501851L5.292569961433883,16.51165116511652L7.215566352009399,12.761276127612774L8.351475847837726,5.97059705970598L7.313952213852797,1.4210854715202004e-14Z" fill="#95AABC"></path>
</svg>