<?xml version="1.0" encoding="utf-8"?>
<!DOCTYPE svg PUBLIC "-//W3C//DTD SVG 1.1//EN"
  "http://www.w3.org/Graphics/SVG/1.1/DTD/svg11.dtd">
<svg version="1.1" xmlns="http://www.w3.org/2000/svg"
  width="100" height="100" viewBox="0 0 100 100">
  <path d="M17.871787178717856,13.824967267799025L37.853785378537836,14.673584577005556L47.354735473547336,14.84040678308888L47.194719471947174,17.50230894102728L49.744974497449725,17.13239883188598L50.30503050305028,14.862166201273666L81.6281628162816,15.137785498280905L99.03990399039901,15.478683049842502L99.99999999999997,40.58905163508157L99.64996499649962,56.988399807012684L97.35973597359734,57.43084131010326L98.10981098109808,62.04383796527716L96.46964696469644,63.46545328668296L90.84908490849082,61.6304090197663L89.05890589058903,64.5824367535018L85.15851585158514,63.07378375935687L83.53835383538352,65.14818162630614L80.13801380138011,63.59600979579166L78.74787478747872,66.12735544462136L71.40714071407139,66.83090996592932L69.27692769276925,67.93338715395831L66.13661366136611,66.62782206287136L61.24612461246122,68.74573876619019L59.435943594359415,67.1935669356757L53.005300530052985,68.28879098430976L46.60466046604658,67.70128669332063L43.124312431243105,69.15191457230614L42.644264426442625,65.44556034149818L41.70417041704169,67.41116111752353L36.91369136913689,71.75579161508512L35.14351435143512,71.28433755441482L30.953095309530934,75.65798060955612L28.362836283628344,74.21460586996554L24.092409240924074,77.63808766437133L19.881988198819865,77.83392242803437L15.221522152215206,81.81589595584958L10.631063106310615,82.99090453782783L5.160516051605145,85.44971879270827L3.730373037303716,84.73891113200537L-1.4210854715202004e-14,78.5809957857119L12.751275127512736,71.03773081498728L9.270927092709256,65.35126952936412L11.021102110211006,43.149409841490986L13.001300130012986,13.781448431429467Z" fill="#95AABC"></path>
</svg>