<?xml version="1.0" encoding="utf-8"?>
<!DOCTYPE svg PUBLIC "-//W3C//DTD SVG 1.1//EN"
  "http://www.w3.org/Graphics/SVG/1.1/DTD/svg11.dtd">
<svg version="1.1" xmlns="http://www.w3.org/2000/svg"
  width="100" height="100" viewBox="0 0 100 100">
  <path d="M33.74694807783081,61.036103610359284L36.52817207746726,63.926392639262176L35.177041175435676,64.52645264526278L33.6065708412561,61.83618361836009L31.360535056060733,61.146114611459396L29.421574475872543,57.04570457045529L30.430535863753274,56.865686568655114ZM31.51845944720728,55.905590559054154L30.31647935903632,55.815581558154065L28.570537479138363,51.405140514049656L30.641101718615342,51.825182518250074ZM84.87058292288319,46.00460046004425L93.86349964095058,55.06550655065332L49.24108556476448,99.79997999799805L46.696748151847856,99.99999999999825L44.345429439221455,96.69966996699495L45.082409931238686,89.19891989198746L47.46882295300876,79.50795079507776L49.62712296534494,74.19741974197245L52.04863029625869,72.46724672467072L55.23343885104744,67.60676067606586L58.71654903355744,68.12681268126637L62.357583607213996,65.61656165616387L67.54276778319237,63.18631863186144L71.37682105713915,57.81578157815606L70.8065385335544,56.37563756375462L66.6566364773145,62.576257625760825L63.34022426323697,63.746374637462L59.14645432056749,66.56665666566482L55.42645755133767,65.73657365736398L53.74193071244114,66.53665366536478L51.27655549509779,70.49704970496875L48.4777843408895,71.92719271927018L47.96891685830617,65.19651965196346L44.08222212064387,61.146114611459396L42.86269487790108,60.93609360935918L46.07382416454758,65.27652765276352L46.80203107927889,67.78677867786604L46.415993678698435,72.78727872787104L42.03797861302465,64.82648264826307L34.29968344684373,57.685768576855935L31.939591156931414,51.025102510249276L28.70214113842715,49.384938493847635L21.665732155119787,48.53485348534679L12.971117064773654,44.18441844184243L10.777722743293804,39.68396839683793L8.522913380812515,37.21372137213546L6.1365003590424365,32.82328232823107L38.97600014023878,-1.7479351299698465e-12L56.22485308435633,17.191719171915437Z" fill="#95AABC"></path>
</svg>