<?xml version="1.0" encoding="utf-8"?>
<!DOCTYPE svg PUBLIC "-//W3C//DTD SVG 1.1//EN"
  "http://www.w3.org/Graphics/SVG/1.1/DTD/svg11.dtd">
<svg version="1.1" xmlns="http://www.w3.org/2000/svg"
  width="100" height="100" viewBox="0 0 100 100">
  <path d="M41.538438177972765,0.02000200020000875L46.96598213361078,0.9600960096009601L49.523790204658575,2.3402340234023313L46.82041582062432,4.130413041304124L43.95483897354801,10.071007100710062L38.83506379393851,16.091609160916093L41.775503316265,20.032003200320034L40.27409077374752,27.24272427242724L43.102236283198735,30.483048304830476L44.24597159952092,33.83338333833383L48.446599488558775,37.72377237723772L50.62593514584177,42.004200420042004L51.29138114806559,45.83458345834583L50.388870007549535,47.89478947894789L51.05847504728725,56.305630563056305L54.215184520336486,59.135913591359135L55.65421150014549,61.7061706170617L55.6001440124648,65.45654565456545L62.82439217410712,74.60746074607461L65.58183404582206,76.07760776077608L68.28520842985631,74.79747974797479L69.76998482231821,84.85848584858486L69.00472191976081,82.4982498249825L65.72324132129462,83.44834483448345L66.62575246181068,87.02870287028702L68.0065529164251,87.64876487648765L62.44176072282843,89.83898389838984L62.42096553525893,91.81918191819182L65.91455704693396,89.72897289728972L67.87346371598034,91.33913391339134L69.96545958547145,90.4890489048905L70.73488152554275,99.95999599959995L51.19156424773202,99.93999399939995L34.26012252864977,99.33993399339934L29.215210024290453,13.311331133113313L29.248482324401643,8.410841084108412L32.13901339656135,4.580458045804576L36.26061957283512,1.2701270127012663Z" fill="#95AABC"></path>
</svg>