<?xml version="1.0" encoding="utf-8"?>
<!DOCTYPE svg PUBLIC "-//W3C//DTD SVG 1.1//EN"
  "http://www.w3.org/Graphics/SVG/1.1/DTD/svg11.dtd">
<svg version="1.1" xmlns="http://www.w3.org/2000/svg"
  width="100" height="100" viewBox="0 0 100 100">
  <path d="M98.5420899250999,79.27792779277927L95.61912537047021,85.33853385338533L96.03669173541732,87.26872687268725L93.53129354573474,89.59895989598958L85.38874942926637,91.1091109110911L84.76239988184574,87.70877087708769L86.59173824256632,89.66896689668965L86.75081114349857,87.63876387638763L84.61326903722176,87.09870987098708L81.85931943983257,80.49804980498048L77.14678474971535,78.3178317831783L75.71512864132532,76.35763576357634L74.85016974250632,70.8070807080708L72.90152670608654,70.37703770377036L71.8079005121775,64.01640164016399L69.74989485636681,65.49654965496548L67.07548170944375,61.57615761576156L65.48475270012148,56.54565456545653L63.913907803415725,55.415541554155396L68.06968734027015,50.30503050305029L64.67944613915208,47.26472647264725L64.42095267513719,52.06520652065205L61.97520682330421,49.9149914991499L64.76892464592646,38.753875387538734L64.23205360528019,33.85338533853384L62.671150764882704,30.08300830083006L59.78795443548609,29.882988298829872L57.13342540117955,25.822582258225808L54.95611506966969,24.15241524152414L55.03565152013581,22.17221722172215L52.0132664024235,18.96189618961894L47.06212236090793,15.481548154815457L42.55837085326426,15.971597159715955L42.72738581050475,18.44184418441843L40.202103508205646,18.2118211821182L34.04797065339011,20.972097209720957L29.88224906022742,21.202120212021185L28.748854641085302,17.331733173317318L22.1970395339392,12.601260126012576L17.58392540690462,10.561056105610547L18.55824692511451,8.760876087608736L15.525919751093932,8.290829082908274L11.877185085960976,9.490949094909467L6.7868522561297135,9.830983098309815L9.08346726333874,8.690869086908677L6.299691497024768,7.990799079907973L4.649310149852913,10.111011101110094L3.237538154079399,5.700570057005677L0.2946894868331995,1.9601960196019377L0.8812708090207865,-1.4210854715202004e-14L20.755441369240895,1.1201120112011012L34.654436088194224,1.5701570157015539L36.29487537905782,5.990599059905975L70.78386871242628,8.93089308930891L71.33068180938082,12.091209120912069L73.07054166332705,11.91119111911189L72.94129493131962,7.310731073107291L74.26358842031874,5.060506050605042L81.04407082255491,7.01070107010699L80.44754744405907,11.71117111711169L83.66877368793666,22.28222822282227L89.02754203809107,35.1135113511351L92.25871033827693,38.84388438843882L90.37966169601498,41.89418941894188L90.2106467387745,37.05370537053704L88.58014950421918,35.69356935693568L90.02174766891747,41.734173417341715L94.98283376674132,52.87528752875286L95.59924125785369,55.6155615561556L99.15849741621227,63.56635663566355L99.5362955559263,69.38693869386937Z" fill="#95AABC"></path>
</svg>