<?xml version="1.0" encoding="utf-8"?>
<!DOCTYPE svg PUBLIC "-//W3C//DTD SVG 1.1//EN"
  "http://www.w3.org/Graphics/SVG/1.1/DTD/svg11.dtd">
<svg version="1.1" xmlns="http://www.w3.org/2000/svg"
  width="100" height="100" viewBox="0 0 100 100">
  <path d="M85.40728204987695,70.45704570457045L84.31469997011754,72.08720872087208L85.92392938991821,73.37733773377337L83.55243340284355,76.2976297629763L83.4169193464393,78.41784178417842L81.14705890166786,82.42824282428242L81.7399328984365,85.36853685368537L80.46101899112125,91.999199919992L78.52994368736049,92.26922692269227L72.1861919219358,89.90899089908991L70.8225817293679,90.78907890789078L71.16983649890382,95.55955595559556L70.50073584540776,99.7899789978998L67.53636586156446,99.14991499149914L67.29921626285699,95.44954495449545L18.361702643866693,91.7991799179918L14.152297266809203,79.49794979497949L15.49896820232659,74.4074407440744L13.898208411051208,67.57675767576757L15.354984517397058,64.76647664766477L15.532846716427656,61.28612861286128L18.751305556028957,58.615861586158616L16.693185824389175,57.265726572657265L16.88798728047031,53.145314531453145L15.54978597347819,51.455145514551454L13.737285469071141,45.66456645664566L7.656092187929737,0L35.826076662966386,0.6900690069006856L51.621933862588556,0.6200620062006124L47.76825288359226,5.100510051005102L47.4294677425816,7.360736073607356L53.383616595844,11.911191119111905L55.12836007204892,11.651165116511649L61.08250892531132,23.002300230022996L66.31673935392607,26.972697269726964L67.67187991796872,30.013001300130014L72.72824814755288,34.06340634063406L72.14384377930946,35.55355535553555L75.46393816121397,40.084008400840084L80.35091382029279,43.29432943294329L82.18882321027564,50.86508650865086L87.03345072672812,57.53575357535753L87.30447883953664,62.33623362336233L90.64998210701697,66.66666666666666L89.59127854135863,67.7967796779678L86.74548335686907,66.17661766176617L86.5591515293132,70.5970597059706Z" fill="#95AABC"></path>
</svg>