<?xml version="1.0" encoding="utf-8"?>
<!DOCTYPE svg PUBLIC "-//W3C//DTD SVG 1.1//EN"
  "http://www.w3.org/Graphics/SVG/1.1/DTD/svg11.dtd">
<svg version="1.1" xmlns="http://www.w3.org/2000/svg"
  width="100" height="100" viewBox="0 0 100 100">
  <path d="M80.64806480648065,55.90186455047454L85.52855285528554,58.754593405750285L91.2991299129913,60.73154094202491L94.85948594859487,63.97064390862468L94.71947194719472,66.14077850056131L99.9899989999,70.27498149172843L96.87968796879689,73.64931539729162L91.03910391039105,75.317163644507L87.02870287028703,77.9445076015104L84.44844484448446,81.9048422425817L80.18801880188019,79.7862241988216L79.47794779477948,78.16989249978275L80.05800580058006,73.82318374738742L76.7876787678768,66.38548210439987L81.15811581158117,60.538353886362884L79.90799079907991,58.70307685757375ZM59.765976597659765,43.18371671939191L61.63616361636164,43.653805221502815L62.55625562556256,46.30046788407241L60.0960096009601,46.95086430480119L58.43584358435844,43.512134714017336ZM66.76667666766677,41.18101090902903L69.01690169016902,43.75039874933382L73.64736473647365,43.17083758234778L77.81778177817782,45.76598369674084L77.00770077007701,48.45128377044284L72.30723072307231,49.83579100268728L69.73697369736973,49.41077948023085L69.3969396939694,46.216753493285545L66.3966396639664,45.48264268176989L65.11651165116513,42.77802390250168ZM55.04550455045505,37.56841296814935L64.75647564756476,38.91428278926139L61.74617461746175,40.89123032553601L58.02580258025803,39.80294324530666L53.75537553755376,39.82226195087286ZM41.484148414841485,28.037851555489972L47.50475047504751,35.99715824876497L44.66446644664467,36.847181293677835L43.064306430643065,35.32744312246999L39.24392439243925,36.048674796941505L35.993599359936,30.65231637544923L38.73387338733873,30.497766730919622ZM3.0603060306030603,22.2100420430192L3.2003200320032006,24.071077345896605L0.8100810081008101,26.408640719406982L0.34003400340034007,24.38017663495583ZM15.641564156415642,17.90197070175627L17.431743174317432,20.291050623443184L16.501650165016503,23.478637041866428L14.701470147014701,24.80518815741226L9.040904090409041,22.65437227104183L8.550855085508552,20.941447044171966L12.251225122512253,17.953487249932806Z" fill="#95AABC"></path>
</svg>