<?xml version="1.0" encoding="utf-8"?>
<!DOCTYPE svg PUBLIC "-//W3C//DTD SVG 1.1//EN"
  "http://www.w3.org/Graphics/SVG/1.1/DTD/svg11.dtd">
<svg version="1.1" xmlns="http://www.w3.org/2000/svg"
  width="100" height="100" viewBox="0 0 100 100">
  <path d="M82.04820482048206,17.73171202483914L82.59825982598261,20.469468967553L85.04850485048505,22.76291213436103L83.29832983298328,25.422260763679745L83.95839583958394,30.041817227877118L86.62866286628662,34.31507030791259L90.47904790479046,35.301708251468185L91.91919191919192,38.8758205370636L94.55945594559455,40.587735379524304L95.90959095909591,43.73713596756268L99.55995599559955,45.89989861204547L99.4199419941994,52.414322649958876L97.55975597559757,53.753798003792625L97.17971797179717,56.97507287910989L92.39923992399238,59.752033978521325L86.42864286428642,60.843216339937115L85.3885388538854,64.58067927843909L88.08880888088808,67.48178687405951L87.84878487848783,71.17351162974765L85.998599859986,73.19252569967267L85.55855585558555,76.43340265333872L81.22812281228121,78.82485621189068L81.88818881888187,82.1049373222543L80.0980098009801,82.57538720262518L76.017601760176,77.8186161899863L51.65516551655165,78.79218608130937L31.593159315931587,78.90326452528582L12.141214121412135,78.22372580919456L10.281028102810275,75.03512106445861L11.621162116211615,71.76157398021124L9.820982098209814,62.7119478091881L10.091009100910084,59.96112281424172L7.2307230723072236,56.80518820008707L8.170817081708163,53.048123183236314L4.050405040504043,45.168087687024105L2.3202320232023133,38.372700526111416L0.1800180018001729,32.4463388386616L1.500150015001493,30.852036466293626L3.3403340334033333,25.32425037193581L1.560156015601553,23.10268149240666L2.2302230223022232,19.593909467973866L1.1801180118011732,17.33313643174715L15.861586158615856,17.797052286001758L50.21502150215021,18.208695931326275Z" fill="#95AABC"></path>
</svg>