<?xml version="1.0" encoding="utf-8"?>
<!DOCTYPE svg PUBLIC "-//W3C//DTD SVG 1.1//EN"
  "http://www.w3.org/Graphics/SVG/1.1/DTD/svg11.dtd">
<svg version="1.1" xmlns="http://www.w3.org/2000/svg"
  width="100" height="100" viewBox="0 0 100 100">
  <path d="M33.760044426869456,0.5000500050004888L33.02315289999093,14.891489148914886L35.920333262077435,19.031903190319028L35.775474243973115,22.832283228322822L39.51031762379333,25.37253725372537L43.11919664004456,31.56315631563156L46.003780565774164,34.31343134313431L48.837978746076175,34.25342534253426L47.31380994689154,39.5039503950395L47.66021194670623,45.45454545454545L46.091955620272444,46.524652465246525L48.1451747464468,50.975097509750974L52.26420943515239,47.764776477647764L57.97039510482711,60.69606960696069L60.055105321893706,60.88608860886088L61.30845073940504,65.45654565456545L67.50589742699879,65.5065506550655L68.51991055372906,63.836383638363834L76.36749040407642,64.25642564256425L77.5893447306955,61.16611661166117L80.99668076523636,65.07650765076508L81.48794178315538,99.86998699869987L70.59202433443875,100L47.5279493649588,99.76997699769977L18.732495853090334,98.51985198519851L20.256664652274974,72.59725972597259L21.83751741506565,68.03680368036804L18.675811889484294,66.18661866186619L18.75768872580413,63.53635363536353L21.938288905920835,59.3959395939594L23.008985996257152,56.075607560756076L27.28547613942397,47.94479447944794L24.28752428648228,44.8044804480448L22.79484657818989,40.86408640864086L22.290989123913974,36.22362236223622L24.640224504475423,0Z" fill="#95AABC"></path>
</svg>