<?xml version="1.0" encoding="utf-8"?>
<!DOCTYPE svg PUBLIC "-//W3C//DTD SVG 1.1//EN"
  "http://www.w3.org/Graphics/SVG/1.1/DTD/svg11.dtd">
<svg version="1.1" xmlns="http://www.w3.org/2000/svg"
  width="100" height="100" viewBox="0 0 100 100">
  <path d="M38.02122524998198,0.09000900090008201L60.302136200957136,0.70007000700069L73.08580885907914,0.6800680068006812L72.7126036006503,4.090409040904092L74.78472831909099,8.190819081908188L76.95154690907333,14.591459145914584L77.241198751436,57.24572457245724L75.52556860821092,61.12611261126112L77.56984218796288,64.29642964296428L77.84278334711233,68.15681568156816L72.02746558890782,78.62786278627863L70.18372020771461,80.6980698069807L70.40095908948663,85.14851485148515L68.52936256960471,87.61876187618762L69.5709951565628,91.04910491049105L63.989626963343525,92.56925692569257L64.22914675606651,98.1998199819982L57.40004754959263,95.3995399539954L55.20537782092157,96.5996599659966L53.74597815363269,99.94999499949995L52.40912349657418,99.65996599659967L49.022425032025964,94.32943294329434L50.30357741170704,93.08930893089308L49.0781273094034,86.90869086908691L42.338151746733416,81.98819881988199L37.3750788324037,77.37773777377737L37.16341017836943,75.25752575257525L40.015366780094254,69.89698969896989L40.97344595098619,65.96659665966597L36.02151349213196,63.91639163916391L33.938248318215784,65.4065406540654L31.994238837743197,57.745774577457745L28.45157399653815,55.055505550555054L23.872846796112754,49.7049704970497L22.313183029544494,44.114411441144114L22.27976166311803,40.52405240524052L24.329605470607746,37.63376337633763L23.928549073490192,34.763476347634764L27.805427578959872,32.9132913291329L28.356880124996504,30.133013301330124L30.15606368428775,28.362836283628354L30.462426209863658,25.29252925292529L28.27889693666809,22.64226422642264L29.37623180100362,19.461946194619458L34.6011054190073,18.831883188318827L38.884610549332265,16.671667166716674L39.38593104572921,13.901390139013898L41.06813982252783,12.841284128412838L41.52489849702282,7.200720072007201L38.483554152214715,5.1505150515051525L37.47534293168309,2.3402340234023313L35.119136598617466,0.5300530053005303Z" fill="#95AABC"></path>
</svg>