<?xml version="1.0" encoding="utf-8"?>
<!DOCTYPE svg PUBLIC "-//W3C//DTD SVG 1.1//EN"
  "http://www.w3.org/Graphics/SVG/1.1/DTD/svg11.dtd">
<svg version="1.1" xmlns="http://www.w3.org/2000/svg"
  width="100" height="100" viewBox="0 0 100 100">
  <path d="M60.57796980629715,0.1500150015001509L81.76681134674928,0.07000700070005905L82.18137563775812,36.38363836383638L82.14847370990029,66.86668666866686L80.64156541401098,68.16681668166817L82.55645761533756,72.23722372237224L82.35904604819049,74.90749074907491L78.91750439425991,75.09750975097509L75.81814279005091,77.22772277227722L73.20572971813803,76.07760776077608L70.1129484995006,76.41764176417641L70.50119124822317,80.54805480548055L68.86925562647406,82.97829782978297L66.46083450727983,84.10841084108411L65.71725093769251,86.68866886688669L62.341513139477634,87.77877787778777L60.749059831157936,90.6890689068907L60.420040552579486,94.12941294129413L55.35972404804294,94.43944394439444L52.46435439655259,90.81908190819082L48.7266953919014,93.55935593559356L48.82540117547494,96.41964196419642L44.60079363852765,97.32973297329733L43.100465728209926,94.8894889488949L38.34284695996555,96.87968796879687L36.395052830781125,99.91999199919992L31.387379410817132,96.01960196019601L27.24173650072867,97.65976597659765L22.37883156333919,97.34973497349735L20.996950593309705,96.07960796079608L20.082276998861616,99.84998499849985L17.167166190656555,98.5998599859986L20.51658244658517,90.23902390239024L20.615288230158704,86.75867586758676L22.14193768276271,87.31873187318732L24.221339523378507,82.66826682668267L29.558032221920953,74.71747174717471L28.452527445897363,72.70727072707271L29.301397184629764,70.44704470447044L26.524474473427652,65.74657465746574L28.195892408606174,63.846384638463846L27.366763826588482,61.46614661466146L29.130307159768968,60.46604660466046L30.505607744226886,1.1401140114011383L34.73679566674574,3.400340034003392L38.092792308245926,2.8002800280028026L43.73876312865211,0Z" fill="#95AABC"></path>
</svg>