<?xml version="1.0" encoding="utf-8"?>
<!DOCTYPE svg PUBLIC "-//W3C//DTD SVG 1.1//EN"
  "http://www.w3.org/Graphics/SVG/1.1/DTD/svg11.dtd">
<svg version="1.1" xmlns="http://www.w3.org/2000/svg"
  width="100" height="100" viewBox="0 0 100 100">
  <path d="M63.91639163916392,28.819757149214148L67.32673267326733,29.298478509777965L69.51695169516952,31.132870979903032L70.68706870687069,34.424609892806444L75.26752675267527,35.28461375293436L77.69776977697771,37.35624866723265L79.53795379537954,36.102252890888494L82.32823282328233,37.75871352788365L87.7987798779878,35.2380125585432L88.25882588258827,37.775659416753165L91.26912691269128,39.69901780344318L91.07910791079108,45.15559401942723L92.86928692869287,48.44309646011325L97.90979097909792,54.649528258573355L99.95999599959997,54.81051420283376L94.999499949995,59.390140669820354L90.25902590259027,61.83882161146536L88.23882388238825,65.6685924959759L85.70857085708572,66.2701715508437L84.89848984898491,68.10880049318615L79.71797179717973,69.41363393613885L77.60776077607761,70.79472387900438L53.87538753875388,70.18043540748444L39.35393539353936,69.28653976961749L22.692269226922694,69.0620067420964L19.851985198519852,68.21047582640324L19.94199419941994,71.18024285078586L1.9401940194019403,70.27363779626677L2.6802680268026804,68.31215115962034L4.460446044604461,69.26535740853059L6.050605060506051,66.32524568966963L5.620562056205621,61.27960727877135L9.160916091609161,58.767379253865656L13.881388138813882,61.51684972294457L15.541554155415543,60.25014452994827L15.041504150415042,56.39071833991609L20.432043204320433,55.06470253587649L19.351935193519353,52.13730023366766L21.122112211221122,49.92586173619587L25.652565256525655,48.36683996020044L29.632963296329635,47.96013862733206L32.82328232823283,50.52744079106368L34.143414341434145,48.59137298772151L37.24372437243724,47.33314073915998L37.883788378837885,48.7354130431124L40.964096409640966,48.39649526572209L40.87408740874088,46.55786632337964L44.084408440844086,45.087810463949154L45.24452445244525,47.17215479489958L48.52485248524853,47.04506062837822L48.784878487848786,44.78702093651526L52.575257525752576,40.537839302484215L55.10551055105511,38.86866924883692L54.80548054805481,35.898902224454304L58.185818581858186,36.305603557322684L62.94629462946295,34.772000614631516L61.95619561956196,30.277103591992493Z" fill="#95AABC"></path>
</svg>