<?xml version="1.0" encoding="utf-8"?>
<!DOCTYPE svg PUBLIC "-//W3C//DTD SVG 1.1//EN"
  "http://www.w3.org/Graphics/SVG/1.1/DTD/svg11.dtd">
<svg version="1.1" xmlns="http://www.w3.org/2000/svg"
  width="100" height="100" viewBox="0 0 100 100">
  <path d="M40.79407940794079,80.14572911049784L44.32443244324432,81.89812653978598L42.22422242224222,83.6415373155906L38.22382238223822,81.6285269352801ZM88.37883788378838,72.60592683781705L88.79887988798879,73.41472565133465L89.9089908990899,75.86808205233805L88.08880888088808,76.76674740069095L84.06840684068408,76.8745872424933L84.34843484348434,79.07631734595789L84.24842484248424,79.65146316890375L82.48824882488248,80.06484922914608L85.75857585758575,84.52222935697642L89.21892189218923,84.71094908013053L94.7194719471947,87.55971823440922L95.45954595459546,90.60619376532553L92.08920892089208,91.94520513437134L89.05890589058905,94.92877409090295L91.85918591859186,90.33659416081966L90.84908490849085,88.51230350366328L88.29882988298829,89.30312901021382L87.28872887288728,86.21172021187988L85.13851385138514,84.86372218935053L81.13811381138115,84.33350963382232L80.00800080008,83.67748392952471L77.76777677767777,83.39889767153531L74.31743174317432,81.05338111233425L73.09730973097308,82.24860602564361L76.61766176617661,84.15377656415174L76.57765776577656,86.49030646986927L75.987598759876,87.05646563933159L76.33763376337635,89.70752841697264L73.28732873287328,91.82837863908546L72.52725272527252,90.66910033971023L71.12711271127111,86.93963914404571L69.69696969696969,89.08744932660913L69.20692069206919,86.13084033052812L66.36663666366636,88.53027681063034L65.7965796579658,89.23123578234559L65.23652365236524,88.96163617783972L63.87638763876387,91.01957982556786L61.4061406140614,90.9386999442161L59.31593159315931,90.35456746778672L61.866186618661864,88.6740632663668L59.52595259525952,88.20675728522329L57.2057205720572,89.77942164484087L52.82528252825282,82.72489866027064L50.15501550155015,81.8711665793354L47.47474747474747,82.62604547195183L45.82458245824582,77.71034601646149L41.46414641464146,78.60002471133086L42.05420542054205,75.8231487849204L34.87348734873487,78.13271873018735L36.623662366236616,80.55911517074017L33.04330433043304,82.41935244183065L26.862686268626856,81.40386059819188L15.851585158515846,77.07229361913093L5.180518051805174,77.75527928387913L3.2003200320031935,78.72583786010026L1.520152015201513,76.11072169639334L2.850285028502843,75.01434997140281L5.950595059505944,69.37971823723015L5.880588058805873,65.47052397189506L4.810481048104804,64.31124567251983L6.080608060806074,61.82194265758231L5.340534053405333,60.02461196087653L8.970897089708965,53.50030153183451L9.860986098609855,49.22265447367474L6.520652065206514,43.03085022352329L6.460646064606454,40.15512110879403L3.7503750375037432,36.37173999222834L4.600460046004594,34.277849730566096L2.100210021002093,29.577829958680454L-7.105427357601002e-15,27.618739499271143L0.32003200320031294,5.0712259090970235L37.11371137113711,5.502585276306419L53.95539553955395,5.457652008888772L55.73557355735573,8.009861598210989L54.385438543854384,11.263030159248473L55.46554655465546,17.53571429075167L57.595759575957594,17.715447360422246L58.9058905890589,20.09691053355742L57.23572357235723,22.703040043780817L54.23542354235423,23.28717252021019L56.32563256325632,24.895783493761883L55.38553855385538,27.879352450293496L50.89508950895089,31.16846762526508L49.45494549454945,36.326806724810695L47.81478147814781,38.07920415409884L48.67486748674867,41.50311913132337L46.56465646564656,40.91000000141046L47.73477347734773,43.776742462656195L45.46454645464546,43.9654621858103L45.53455345534553,49.89665348493941L81.42814281428141,49.24961443412532L81.90819081908191,49.90564013842293L79.74797479747974,56.84333662770728L83.06830683068307,61.372609983405866L85.37853785378539,67.32177458950203L79.96799679967995,71.58144834069475L82.97829782978297,74.18757785091815L85.2085208520852,73.82811171157698L87.05870587058706,70.3592634669348Z" fill="#95AABC"></path>
</svg>