<?xml version="1.0" encoding="utf-8"?>
<!DOCTYPE svg PUBLIC "-//W3C//DTD SVG 1.1//EN"
  "http://www.w3.org/Graphics/SVG/1.1/DTD/svg11.dtd">
<svg version="1.1" xmlns="http://www.w3.org/2000/svg"
  width="100" height="100" viewBox="0 0 100 100">
  <path d="M97.95979597959797,76.411905468113L99.25992599259928,80.10042764455913L95.35953595359538,80.62823614235342L92.20922092209221,79.4498729844871L95.71957195719574,79.24120450861494ZM81.31813181318134,72.88909061074182L85.53855385538554,75.53427040782715L85.12851285128514,76.7433201062629L78.14781478147816,77.05018551195725L76.33763376337635,78.5967871566568L78.41784178417842,73.64397950874994ZM86.8986898689869,66.43877978304651L84.61846184618463,68.94280149351243L79.17791779177918,70.01069310532878L80.01800180018003,68.39658107137649L79.68796879687969,63.13077070966138L77.06770677067709,62.173350643895L76.7776777677768,65.41384932802737L72.70727072707271,66.50629017229927L72.007200720072,69.72837693208999L68.93689368936896,71.34248896604228L66.60666066606663,71.2381547281062L66.24662466246625,65.22359277649687L64.47644764476448,64.67737235436093L60.936093609360945,60.84769209129539L60.446044604460454,56.342907935702286L59.245924592459254,56.53930179534667L59.245924592459254,51.83812378010917L47.594759475947605,52.23091149939795L47.554755475547566,51.660141844806446L19.31193119311932,50.89911563868445L0.28002800280028717,50.03375519462637L7.105427357601002e-15,48.63444894466012L7.280728072807288,24.134314954022933L34.263426342634276,25.453836198508654L61.62616261626164,26.46649203730002L64.71647164716472,24.938302316942142L64.58645864586461,22.949814488042726L67.91679167916791,22.354495600995683L68.84688468846886,20.37214508021016L71.61716171617164,19.39631309010211L74.82748274827483,21.710078249037544L76.32763276327634,28.38746947694667L79.56795679567958,26.63833666448886L81.03810381038105,28.620687185274384L79.29792979297932,30.652136170971005L72.8772877287729,32.38285705908716L72.6972697269727,35.26739187261408L70.06700670067008,37.163820079805184L70.61706170617063,38.630636719024196L68.54685468546856,41.35560152159005L71.02710271027104,43.23975511255338L73.64736473647366,42.13503965205371L76.1876187618762,43.43614897219777L79.91799179917993,49.13770820999886L79.24792479247927,53.90639661448911L82.76827682768277,55.17068208594985L83.00830083008302,59.69387816588463L84.71847184718473,61.27730365926749L89.63896389638964,62.21017449257832L89.00890089008902,63.19214379080025L97.30973097309732,60.098940501401174L97.99979997999802,56.31835870324673L95.94959495949595,54.784031674774965L95.44954495449545,50.17491328124578L98.07980798079808,53.75296391164194L99.92999299929994,61.59030637307573L99.06990699069908,65.13767046290245L97.94979497949797,64.52393965151374L91.10911091109111,66.19328745849103Z" fill="#95AABC"></path>
</svg>