<?xml version="1.0" encoding="utf-8"?>
<!DOCTYPE svg PUBLIC "-//W3C//DTD SVG 1.1//EN"
  "http://www.w3.org/Graphics/SVG/1.1/DTD/svg11.dtd">
<svg version="1.1" xmlns="http://www.w3.org/2000/svg"
  width="100" height="100" viewBox="0 0 100 100">
  <path d="M98.72987298729875,62.08001652743327L97.78977897789781,66.49381807528114L95.31953195319534,67.79478344797616L92.7792779277928,73.27779945192559L83.62836283628364,74.58403189090681L81.90819081908192,76.10621404762284L81.86818681868189,71.8767598197925L82.4782478247825,70.03855368590358L79.46794679467949,69.99115008932765L82.63826382638265,67.35234987993412L79.42794279427945,66.68869952787108L78.16781678167818,63.10182738695891L76.60766076607662,65.84070185579053L74.66746674667469,64.67668020653709L73.11731173117313,63.9603591916119L70.93709370937096,60.31554932155137L72.84728472847286,58.88290729170099L72.66726672667268,56.017623232000226L77.41774177417743,57.729419775019984L72.96729672967298,53.2734816968824L70.63706370637065,52.404415759656985L72.35723572357237,49.44959157309057L74.45744574457447,52.27273910250162L73.25732573257328,46.04179968590971L75.56755675567558,41.94928918152094L74.24742474247427,41.06968911172309L73.15731573157318,43.58207973024747L72.00720072007202,40.88534179170558L74.00740074007402,36.08177733867783L77.2877287728773,33.93281429390226L78.78787878787881,28.597276145966838L75.95759575957598,29.640155270637337L75.84758475847586,32.55810999320024L73.0873087308731,35.01782994886248L71.11711171117113,33.927547227616046L68.73687368736876,39.13140871839611L64.51645164516454,37.77777268283894L68.35683568356838,41.20663283516467L66.49664966496651,43.039571902767364L69.40694069406942,44.825107373794125L67.75677567756777,47.743062096357036L66.24662466246626,51.593287551579934L67.33673367336735,60.173338531823575L69.81698169816983,62.87007647036547L68.92689268926894,64.79255566483381L63.36633663366338,59.34640912488788L64.4864486448645,62.027345864571124L67.52675267526755,64.75568620083031L71.18711871187121,69.94901355903794L71.25712571257127,72.54041017185554L68.29682968296831,69.41703986413026L66.49664966496651,70.12282674648301L65.0765076507651,67.7789822491175L62.2862286228623,66.35687435183955L60.79607960796081,67.47349240451706L58.74587458745876,62.80160460864468L59.41594159415943,66.34634021926712L57.46574657465748,65.56681440890736L54.82548254825484,61.23201885535271L51.07510751075109,63.660136413297664L49.604960496049614,59.941587615230134L53.19531953195321,54.67452132901549L54.945494549454956,53.584238607769066L55.275527552755285,50.84009707265124L57.82578257825784,48.296104056409575L54.85548554855487,45.33601280355695L53.0853085308531,47.100480009438854L48.114811481148124,43.38193121137132L44.134413441344144,41.722805331213706L45.46454645464547,38.60470208977464L43.10431043104311,36.360931851847205L38.813881388138824,35.460263516904504L38.383838383838395,31.76278298398183L35.94359435943595,29.108181575729652L36.033603360336045,27.3595155687064L33.22332233223323,27.665005413306844L29.4929492949295,24.947199209620095L27.542754275427548,27.10142932068188L25.61256125612562,26.469381366336123L23.092309230923096,29.950912181523996L18.831883188318837,29.461075016906037L15.731573157315735,27.248907176695887L11.821182118211825,32.08407402744093L10.101010101010104,30.825245185035627L0,38.50989489662278L0.6300630063006302,23.66730210206994L44.50445044504451,24.420492580998626L82.75827582758278,24.204542863263832L82.7782778277828,26.30610231146347L85.39853985398541,60.56310143700345L99.14991499149917,60.5789026358621Z" fill="#95AABC"></path>
</svg>