<?xml version="1.0" encoding="utf-8"?>
<!DOCTYPE svg PUBLIC "-//W3C//DTD SVG 1.1//EN"
  "http://www.w3.org/Graphics/SVG/1.1/DTD/svg11.dtd">
<svg version="1.1" xmlns="http://www.w3.org/2000/svg"
  width="100" height="100" viewBox="0 0 100 100">
  <path d="M61.24778220079322,67.85678567856786L63.323285368939594,70.29702970297029L60.682930072753386,72.68726872687269L59.19198317664824,70.65706570657065ZM37.50428867911876,82.78827882788279L37.32038333510579,82.77827782778277L36.03961397501547,84.11841184118411L34.62748365491588,80.62806280628062L32.45345976676256,80.93809380938094L29.484702070553197,84.65846584658466L30.391092694617114,87.14871487148714L27.73103325442952,87.84878487848785L26.35174317433225,91.76917691769177L24.76884360622062,92.12921292129212L22.351801942050162,98.04980498049805L19.750854933866737,96.2996299629963L20.197482197898232,94.51945194519452L17.616239333716198,91.68916891689169L17.754168341725922,86.6986698669867L17.51771861370925,59.905990599059905L17.163044021684236,47.724772477247726L19.77712712586859,47.664766476647664L20.14493781389453,49.304930493049305L22.483162902059426,45.16451645164516L24.289376102186807,46.2046204620462L23.067719174100652,43.17431743174317L25.767186902291023,39.86398639863986L28.460086582480937,38.42384238423842L28.000323222448515,37.08370837083708L30.47647731862314,34.99349934993499L29.688311558567555,32.053205320532044L31.53393304669771,25.122512251225118L33.91813447086585,23.232323232323225L34.9624541029395,16.98169816981698L47.04766242379179,0L49.793106487985405,0.7500750075007403L49.917899399994205,4.950495049504951L51.9539942801378,6.3706370637063685L56.85375808848334,3.9303930393039224L59.95387674470197,3.9103910391038994L62.12790063285529,2.3902390239023816L68.95867055333702,8.8108810881088L69.32648124136296,34.023402340234014L69.02435103334165,39.993999399939995L74.9750025217613,42.104210421042104L73.84529826568163,44.14441444144414L74.98157056976177,46.31463146314631L74.08831604169877,48.824882488248825L76.51849380187016,52.26522652265226L79.36245858607072,51.43514351435143L81.35257713021107,56.075607560756076L79.88790242610779,57.73577357735773L82.28523994627685,59.225922592259224L79.57263612208554,62.52625262526252L77.50370100193965,63.506350635063505L77.1358903139137,61.626162616261624L74.67944036174046,64.0964096409641L73.2279017536381,62.75627562756276L73.0308603136242,65.67656765676568L70.73204351346209,66.56665666566656L69.31334514536204,64.24642464246425L67.72387752924993,68.77687768776877L65.62867021710218,66.75667566756675L62.6796166648942,66.08660866086609L59.146006840645,68.66686668666867L59.31677608865704,66.53665366536654L57.004823192493994,68.5968596859686L57.681332136541705,72.54725472547254L54.049201592285556,69.86698669866986L52.8275446641994,70.67706770677067L53.95068087227861,66.2066206620662L49.84565087198911,67.93679367936794L50.863698312060905,69.66696669666966L48.31529568788119,75.86758675867587L45.93109426371304,77.94779477947795L42.76529512748978,78.3078307830783L41.7800879274203,81.21812181218121L40.55843099933415,78.98789878987898Z" fill="#95AABC"></path>
</svg>