<?xml version="1.0" encoding="utf-8"?>
<!DOCTYPE svg PUBLIC "-//W3C//DTD SVG 1.1//EN"
  "http://www.w3.org/Graphics/SVG/1.1/DTD/svg11.dtd">
<svg version="1.1" xmlns="http://www.w3.org/2000/svg"
  width="100" height="100" viewBox="0 0 100 100">
  <path d="M66.44618908424701,37.67376737673767L69.98551627996235,39.74397439743974L72.27006977548523,39.843984398439844L73.36042485289386,41.65416541654165L80.10158838703141,43.884388438843885L82.31691298875056,47.8047804780478L80.61215147883388,49.26492649264926L82.84478330400395,53.615361536153614L82.2822985418487,59.475947594759475L80.18812450428607,60.74607460746074L79.80736558836558,63.836383638363834L76.92571288378561,64.76647664766477L75.76612891257325,68.35683568356836L78.83816107511346,70.95709570957095L81.15732901753819,68.75687568756875L83.35534639580641,64.85648564856486L87.02447776740374,63.28632863286328L89.04942291116265,64.39643964396438L90.57245857484456,67.58675867586759L91.93972922746809,75.987598759876L93.2377709862879,79.89798979897989L92.12145507370286,85.3985398539854L89.22249514567196,84.7984798479848L88.33982674967449,88.76887688768876L85.97739074862243,90.47904790479048L84.93030372984111,94.92949294929493L81.92750046110461,99.10991099109911L66.83560161189294,100L66.81829438844201,99.01990199019902L43.791033586978564,99.08990899089909L46.41307793979458,96.65966596659666L49.21684813884538,91.48914891489149L50.86968797840927,84.64846484648464L50.35047127488134,78.97789778977898L47.2351710537138,70.14701470147014L48.42071586010256,67.27672767276727L47.53804746410509,64.29642964296428L50.29854960452855,59.48594859485949L50.523543509390656,54.285428542854284L52.418684477267576,51.34513451345134L55.308990793573024,50.46504650465046L57.30797510215553,46.88468846884688L57.52431539529217,53.3053305330533L59.58387498595293,51.16511651165116L60.0165555722262,45.49454945494549L64.84527091503591,43.65436543654365L62.62994631331676,40.89408940894089ZM25.86940370353971,15.311531153115311L27.747237447965702,18.921892189218923L27.323210473417898,22.622262226222617L29.780836203450075,19.951995199519942L35.656638565041085,21.542154215421533L38.893089350365145,26.702670267026704L42.44107015780597,26.28262826282628L46.46499961014738,28.182818281828176L51.73504915095581,24.23242324232423L58.53678796717162,24.13241324132413L64.1443283652732,22.69226922692269L63.486653874137836,27.082708270827084L70.64319077109772,26.642664266426635L73.64599403983422,32.82328232823282L75.50652056080928,34.46344634463446L69.97686266823689,34.963496349634966L67.46731526785192,33.573357335733576L65.62409597032779,36.343634363436344L63.72895500245087,34.29342934293429L58.29448683885859,33.063306330633054L56.8406800689804,35.003500350035L49.86586901825528,35.713571357135706L45.616945661051766,39.79397939793979L47.55535468755602,36.68366836683668L44.85542782921081,36.583658365836584L42.84778990890284,39.49394939493949L42.6574104509426,36.91369136913691L38.93635740899247,43.13431343134313L35.31914770774793,47.92479247924792L35.47491271880631,44.37443744374437L32.90479003634309,44.114411441144114L34.1509101248101,39.25392539253925L30.412549859409047,36.91369136913691L30.888498504309645,35.47354735473547L26.276123454636583,33.743374337433735L23.680039936996963,33.743374337433735L20.417628316496504,31.743174317431738L9.669842553468468,28.222822282228222L8.795827769196462,25.652565256525648L6.7362681785356955,24.572457245724564L10.77750485432804,23.192319231923193L12.871678891890669,21.382138213821378L17.35424976568175,20.882088208820875ZM34.047066784104516,11.781178117811777L28.707788349492365,17.701770177017693L25.96459343251983,16.851685168516852L25.904018150441573,15.331533153315334L30.23947762489974,12.07120712071206ZM26.103051220127277,1.5101510151014992L25.929978985617968,3.3003300330032914L20.746465562064188,6.020602060206016L20.166673576458006,4.6704670467046725Z" fill="#95AABC"></path>
</svg>