<?xml version="1.0" encoding="utf-8"?>
<!DOCTYPE svg PUBLIC "-//W3C//DTD SVG 1.1//EN"
  "http://www.w3.org/Graphics/SVG/1.1/DTD/svg11.dtd">
<svg version="1.1" xmlns="http://www.w3.org/2000/svg"
  width="100" height="100" viewBox="0 0 100 100">
  <path d="M59.99599959996,5.959080883995398L62.986298629862986,9.92079647083034L64.51645164516452,10.5429596576774L63.18631863186319,13.287797246708536L63.31633163316332,17.15801824724244L65.14651465146515,23.15091364996043L70.00700070007001,28.585692076242083L74.11741174117412,31.605013424176335L76.4076407640764,39.830376732639635L78.62786278627863,38.17432472059085L83.93839383938395,40.2238034537341L82.94829482948295,45.01811977590849L80.15801580158016,50.29735740547838L82.11821182118213,54.634200796147574L88.27882788278828,58.62336475887283L93.42934293429343,62.850414645980784L93.37933793379338,65.72334465583337L94.77947794779479,69.29163352157386L93.41934193419343,70.66405231608942L97.20972097209722,76.33671666675377L97.4897489748975,74.86365382730706L100,76.81248851551916L99.67996799679969,80.87484814728525L97.75977597759777,84.58037889247728L95.85958595859586,83.49159331549494L95.04950495049505,86.0625911905541L92.74927492749275,84.74506914781915L93.72937293729373,88.29505909629943L90.82908290829083,90.70136671601672L92.45924592459247,93.10767433573403L90.6890689068907,95.56887870723195L80.10801080108011,95.74271842120392L85.01850185018502,89.78642085300635L83.5883588358836,85.98024606288317L63.88638863886389,85.94364822836276L34.25342534253426,85.34893341740602L13.601360136013602,84.58037889247728L14.691469146914692,59.5108622459929L16.051605160516054,32.85848925650055L12.651265126512651,31.48607046198498L8.930893089308931,25.291886969404715L12.121212121212121,21.00994033051613L11.891189118911893,18.530437041758006L8.680868086808681,18.100412486143128L4.690469046904691,14.834055755196076L5.0705070507050705,13.470786419310613L1.9901990199019903,9.051597900970478L0.15001500150015,4.257281578796096L18.281828182818284,5.501607952490204L37.27372737273728,6.041426011666331Z" fill="#95AABC"></path>
</svg>