<?xml version="1.0" encoding="utf-8"?>
<!DOCTYPE svg PUBLIC "-//W3C//DTD SVG 1.1//EN"
  "http://www.w3.org/Graphics/SVG/1.1/DTD/svg11.dtd">
<svg version="1.1" xmlns="http://www.w3.org/2000/svg"
  width="100" height="100" viewBox="0 0 100 100">
  <path d="M74.1917794530338,0.18001800180019245L79.6284165378469,0.1500150015001651L81.38622067612366,2.280228022802291L78.87507190715687,26.74267426742675L75.18996108869811,64.43644364436443L76.67781673431094,95.63956395639563L70.33088822074737,96.44964496449646L68.35963643710843,95.2895289528953L59.92845444530245,97.37973797379738L57.76258863206859,99.45994599459947L54.73665436546361,98.92989298929893L53.57524805981647,94.25942594259426L50.59953676859082,89.90899089908991L52.70262386260051,82.84828482848285L18.80839335347127,82.34823482348236L18.927672919997192,76.7876787678768L21.055871501696547,76.67766776677668L21.313264250515644,71.35713571357135L23.10245774840448,70.70707070707071L24.40825510826721,64.97649764976498L29.248494360450696,61.4961496149615L29.694223266942302,59.27592759275928L27.741805099070625,57.77577757775778L32.26187288321084,54.86548654865487L29.311273079674866,52.50525052505251L28.218923365174312,48.44484448444845L29.304995207752448,41.3941394139414L27.239575345277267,42.63426342634264L29.537276468881878,38.20382038203821L27.20818598566518,29.462946294629475L29.05388033085577,24.862486248624876L30.924686163736027,25.322532253225333L29.88255942461481,21.202120212021214L33.22238728734064,19.951995199519956L32.74526902123695,15.401540154015407L34.101289356479015,16.171617161716185L35.852815622833354,12.87128712871288L38.89758350520559,11.971197119711988L41.80423820528465,3.370337033703379L44.58533546691537,1.9901990199020076L43.65621042239765,1.4210854715202004e-14Z" fill="#95AABC"></path>
</svg>