<?xml version="1.0" encoding="utf-8"?>
<!DOCTYPE svg PUBLIC "-//W3C//DTD SVG 1.1//EN"
  "http://www.w3.org/Graphics/SVG/1.1/DTD/svg11.dtd">
<svg version="1.1" xmlns="http://www.w3.org/2000/svg"
  width="100" height="100" viewBox="0 0 100 100">
  <path d="M94.20942094209421,35.23875694726853L93.03930393039305,36.863008410645406L86.32863286328633,40.0466937907386L93.0893089308931,39.08205618455467L93.65936593659366,43.71460437235494L94.50945094509451,39.913245900555054L96.61966196619662,40.439411867564466L96.90969096909691,43.90905701233668L91.00910091009101,48.084069576650506L82.96829682968297,46.299680645053364L88.26882688268827,48.690304277770046L85.5985598559856,54.07397344746057L88.54885488548855,52.71280496758838L91.05910591059106,53.322852465570314L88.5088508850885,56.63236014212228L81.71817181718173,57.41779629577401L72.26722672267228,65.33697537895192L71.2871287128713,68.28045455671473L65.0965096509651,68.58547830570569L52.55525552555256,55.850736785332934L39.833983398339846,55.48470828654378L40.03400340034004,53.91383597924031L37.25372537253726,50.90172645795454L23.162316231623173,49.83033053962377L13.731373137313744,52.21714137547807L1.4210854715202004e-14,51.7367289708173L0.5300530053005442,48.4996644346507L3.590359035903604,47.637972343751215L3.6703670367036842,46.11666639565878L6.600660066006614,44.175952792703775L9.670967096709685,44.29796229230016L12.661266126612674,42.17804723681296L15.821582158215834,41.42311345806033L19.611961196119623,37.78189245448069L19.841984198419855,39.14687373121525L24.272427242724284,36.68761975497561L26.372637263726382,37.25191369060889L29.732973297329742,33.32854571921261L30.503050305030513,30.93792208649593L45.83458345834584,31.852993333468824L65.65656565656566,31.97500283306521L93.13931393139315,31.36495533508328L95.97959795979598,37.86196118859082Z" fill="#95AABC"></path>
</svg>