<?xml version="1.0" encoding="utf-8"?>
<!DOCTYPE svg PUBLIC "-//W3C//DTD SVG 1.1//EN"
  "http://www.w3.org/Graphics/SVG/1.1/DTD/svg11.dtd">
<svg version="1.1" xmlns="http://www.w3.org/2000/svg"
  width="100" height="100" viewBox="0 0 100 100">
  <path d="M65.07224998809953,2.290229022902281L66.46816503261623,24.482448244824482L68.43490035555983,66.46664666466646L69.00572063398674,67.31673167316731L68.1131652895374,73.73737373737373L73.11562663866046,79.64796479647964L72.56037418600884,83.7083708370837L75.77253557097478,86.94869486948694L72.15042144059315,93.61936193619361L69.85676177636867,92.72927292729273L67.01303893475101,93.73937393739374L66.07378011297583,95.76957695769578L62.66442626818967,96.38963896389639L62.79415814965033,98.42984298429843L59.62870024201021,100L26.739073654103617,98.76987698769877L24.05621834549716,93.85938593859386L25.17191252605884,89.72897289728972L27.247622629429404,87.8887888788879L27.03486234383392,82.8982898289829L29.245493603923574,66.42664266426642L30.719247777316674,65.21652165216521L31.40423211142896,61.676167616761674L34.76169320363085,57.355735573557354L34.694232625271304,55.56555655565556L37.39265575965304,51.365136513651365L36.671346498731765,50.27502750275027L39.03765601657422,47.044704470447044L38.05688299273162,39.68396839683968L39.03246674131579,37.79377937793779L45.09872951841626,36.37363736373637L45.37376110711286,35.013501350135016L48.643004519921504,33.803380338033804L51.58013431619085,30.783078307830777L52.65431429468512,27.69276927692769L50.05967666547191,21.4021402140214L53.79595485153893,15.141514151415137L52.53496096374131,12.38123812381238L55.607011916729746,6.830683068306826L56.717516822033005,2.7802780278027797L59.426318506931594,0.21002100210020558L60.889694129807836,2.1202120212021214Z" fill="#95AABC"></path>
</svg>