<?xml version="1.0" encoding="utf-8"?>
<!DOCTYPE svg PUBLIC "-//W3C//DTD SVG 1.1//EN"
  "http://www.w3.org/Graphics/SVG/1.1/DTD/svg11.dtd">
<svg version="1.1" xmlns="http://www.w3.org/2000/svg"
  width="100" height="100" viewBox="0 0 100 100">
  <path d="M29.925353297504465,82.77827782778277L26.87842556746081,79.23792379237923L24.501612527186204,77.95779577957796L25.580078356033273,73.4073407340734L23.841968379444793,70.97709770977097L27.04071896888925,65.53655365536554L31.532581498747426,62.37623762376237L37.369908679157525,60.7060706070607L38.44837450800459,57.63576357635763L43.898291633391956,52.995299529952995L50.51567419486134,49.14491449144914L43.58941064357653,41.764176417641764L42.8983548697522,39.513951395139514L39.85142713970854,38.42384238423842L39.67342792523864,33.493349334933484L35.69462195473489,31.86318631863186L35.43809367505768,27.29272927292729L36.44850098072508,23.732373237323728L37.67878966897295,23.842384238423833L40.2702488208142,19.90199019901989L37.65261331390384,15.671567156715668L41.09742164099787,12.931293129312934L44.30664277246997,8.910891089108901L47.25410035325103,2.7202720272027108L49.5209727022354,0.5200520052005118L52.05484387292463,0.2900290029002832L61.69297780936857,6.330633063306323L76.14756107852756,14.58145814581458L75.41985840760648,18.021802180218017L71.03270129802472,28.542854285428533L68.72918205194361,29.272927292729264L70.25264591696543,25.37253725372537L67.10101276664537,29.382938293829383L64.65614120319108,35.673567356735674L66.7554848797332,37.43374337433743L69.1061215649387,37.04370437043704L73.27339729193999,38.81388138813881L72.55092989203273,42.64426442644264L74.1110406541513,43.18431843184318L70.93846641977595,58.895889588958894L70.7238203082093,55.28552855285528L68.72918205194361,56.025602560256026L70.11129359959227,58.655865586558654L67.24236508401852,66.34663466346635L68.425536333142,68.02680268026802L62.67197348895304,73.75737573757375L60.1590434023191,74.31743174317432L60.452218579093056,79.63796379637964L59.321400040107775,78.20782078207822L57.928817950431466,80.6980698069807L60.53598291531419,82.04820482048206L56.65141182305922,83.94839483948394L52.88725196412212,84.29842984298429L52.86107560905302,88.44884488448845L48.45297741541597,97.05970597059707L45.94528259979585,99.54995499549955L42.48476845966036,99.54995499549955L44.78305243472765,93.3093309330933L44.83540514486586,89.86898689868987L38.12902297616152,88.2988298829883Z" fill="#95AABC"></path>
</svg>