<?xml version="1.0" encoding="utf-8"?>
<!DOCTYPE svg PUBLIC "-//W3C//DTD SVG 1.1//EN"
  "http://www.w3.org/Graphics/SVG/1.1/DTD/svg11.dtd">
<svg version="1.1" xmlns="http://www.w3.org/2000/svg"
  width="100" height="100" viewBox="0 0 100 100">
  <path d="M95.15951595159515,76.61977832730567L90.53905390539053,80.87130994832624L91.95919591959195,81.18425931360784L95.94959495949594,78.53563907573684L96.95969596959695,79.44395552618828L92.72927292729271,81.80252513282268L86.98869886988697,83.84051246282715L82.48824882488248,84.35191752316535L79.08790879087908,85.93956308361828L72.51725172517251,86.84787953406972L73.78737873787378,83.17644917552232L79.21792179217921,80.51256311495467L83.49834983498349,80.94000615046123L83.88838883888388,79.93246185248148L90.06900690069006,79.75690489146987ZM76.98769876987697,80.03932261135813L72.48724872487247,84.71066435653692L73.85738573857385,79.67294286663822L60.12601260126012,71.53625936931698L58.48584858485848,65.3917657339102L55.39553955395539,62.70498093929757L25.39253925392539,61.972221449857756L0,60.62882905255143L0.29002900290029,56.064348066249266L8.2008200820082,51.75938606579037L11.99119911991199,48.232981022861274L11.45114511451145,43.19525953296257L9.87098709870987,42.88994307902931L10.13101310131013,39.95127220992173L16.65166516651665,38.32546209272715L21.97219721972197,38.5086519650871L26.7026702670267,39.62305702194348L28.38283828382838,41.05041144408145L36.16361636163616,40.78325954688985L42.83428342834283,36.745449443622554L44.99449944994499,36.69201906418423L45.17451745174517,32.02067731900543L46.44464446444644,30.524626694732476L44.6044604460446,28.547702655514655L43.22432243224322,26.799765956746768L46.174617461746166,24.02901913730247L49.22492249224922,22.616930537861165L51.03510351035103,20.159133083698464L56.65566556655665,14.816095139866505L60.69606960696069,12.373563508400466L80.22802280228022,11.869791359410598L79.74797479747974,18.52569005515555L80.86808680868086,20.884259661789955L80.62806280628062,24.81520900618061L79.27792779277927,28.219487467536403L80.38803880388038,32.78396845383857L79.46794679467946,35.119639326427965L81.68816881688169,36.47829754643095L81.65816581658164,50.10304430320246L78.73787378737873,61.26236069446294L78.3178317831783,74.62758846539118L79.2079207920792,76.01677833078749L76.09760976097608,77.92500616787034Z" fill="#95AABC"></path>
</svg>