<?xml version="1.0" encoding="utf-8"?>
<!DOCTYPE svg PUBLIC "-//W3C//DTD SVG 1.1//EN"
  "http://www.w3.org/Graphics/SVG/1.1/DTD/svg11.dtd">
<svg version="1.1" xmlns="http://www.w3.org/2000/svg"
  width="100" height="100" viewBox="0 0 100 100">
  <path d="M95.33144100387905,0.14001400140017495L96.18126119182746,37.27372737273729L93.05909571871261,38.90389038903892L94.62017845527004,41.70417041704172L94.66636433504985,46.15461546154617L92.56028821709072,50.75507550755077L91.59962191767076,57.64576457645766L89.32727663250434,61.53615361536155L90.10319941280507,63.12631263126314L83.74802235510384,70.71707170717073L78.35351159682256,73.72737273727374L77.05106978703205,71.84718471847185L74.63092968657024,73.69736973697371L74.4277118155391,75.64756475647566L71.95214865934153,75.71757175717573L69.1070984649055,81.06810681068107L70.24327110748872,85.42854285428544L67.37050938518482,86.85868586858686L66.39136873385294,83.5983598359836L64.22063238420209,82.67826782678269L60.46110177012593,88.95889588958896L61.34787066189819,93.65936593659366L58.789172922096974,95.03950395039504L58.08714754944393,98.70987098709871L53.49627109933127,99.94999499949995L49.11784969620571,95.65956595659566L46.63304936405218,94.75947594759477L45.70009459250011,90.20902090209022L42.46708300791373,91.13911391139115L39.81601350855289,93.94939493949396L36.87859155455727,94.55945594559456L31.80738195473463,91.56915691569156L28.639030601839973,93.63936393639364L26.634563419396418,92.93929392939295L24.44535271783364,89.92899289928994L17.009426073284963,88.52885288528853L14.053529767377414,81.91819181918193L11.411697443972542,79.51795179517953L8.446563962109032,80.7880788078808L5.499904832157444,78.64786478647865L3.818738808172526,79.77797779777978L5.065757562227273,46.27462746274629L6.035661037603187,7.660766076607686L33.93193242460568,7.170717071707202L36.804694146909576,7.980798079808011L45.4414536657332,13.301330133013323L47.205754273321766,11.321132113211348L48.61904219458381,13.681368136813703L44.591633477784775,14.051405140514078L45.275184498525896,15.971597159715998L47.65837589516386,14.45144514451448L49.97690706011009,14.761476147614786L53.87499531352567,17.02170217021704L59.3064547756308,15.5815581558156L64.37766437545343,13.301330133013323L69.98463018072181,14.051405140514078L79.51739576727365,6.260626062606292L85.3460537954851,3.650365036503686Z" fill="#95AABC"></path>
</svg>