<?xml version="1.0" encoding="utf-8"?>
<!DOCTYPE svg PUBLIC "-//W3C//DTD SVG 1.1//EN"
  "http://www.w3.org/Graphics/SVG/1.1/DTD/svg11.dtd">
<svg version="1.1" xmlns="http://www.w3.org/2000/svg"
  width="100" height="100" viewBox="0 0 100 100">
  <path d="M33.65336533653365,26.56574880654363L54.30543054305431,26.89077992533487L74.81748174817483,26.75288793554465L96.73967396739674,26.20131997638375L96.98969896989699,33.371703445475376L99.72997299729974,49.10123970940301L99.9899989999,74.4093445498301L95.41954195419542,72.91223151782197L91.06910691069108,69.92293016772676L90.36903690369037,71.16395807583876L86.54865486548655,70.34645556493959L78.30783078307832,73.0205752240857L72.54725472547256,72.14397614613357L70.97709770977099,70.61731483059896L67.75677567756776,73.55244432756228L67.67676767676768,71.38064548836627L65.36653665366536,72.4246848396351L61.58615861586159,70.03619858791158L59.85598559855986,71.88789102223744L56.87568756875688,69.82443588930516L56.57565756575658,67.66741119187239L43.70437043704371,66.70709197726191L43.444344434443444,64.89479725430468L37.71377137713772,64.25950915848543L34.153415341534156,61.585389499339314L34.713471347134714,33.7952288426882L20.71207120712071,33.425875298607245L0,32.52957736497079L0.37003700370037007,25.37889275156349L11.761176117611761,26.009256133461655Z" fill="#95AABC"></path>
</svg>