<?xml version="1.0" encoding="utf-8"?>
<!DOCTYPE svg PUBLIC "-//W3C//DTD SVG 1.1//EN"
  "http://www.w3.org/Graphics/SVG/1.1/DTD/svg11.dtd">
<svg version="1.1" xmlns="http://www.w3.org/2000/svg"
  width="100" height="100" viewBox="0 0 100 100">
  <path d="M9.8009800980098,13.72025313477478L11.25112511251125,14.98222230637569L15.201520152015199,13.78745859361743L16.96169616961696,15.460127791478996L20.13201320132013,14.83287684228091L23.69236923692369,18.880138919249532L24.28242824282428,24.196837441023824L29.41294129412941,26.071123015413356L35.64356435643564,23.44264284734517L41.72417241724172,23.681595589896823L43.68436843684368,25.189984777254132L49.78497849784978,22.90499917660395L54.81548154815481,23.248493744021943L57.79577957795779,21.516086360522465L63.07630763076307,20.022631719574633L67.83678367836782,19.537258961266588L69.48694869486948,18.357429794917792L94.24942494249424,17.648038840467578L96.22962296229622,20.64241539556798L98.29982998299829,21.194993612718676L99.98999899989998,23.905613786038998L97.69976997699769,29.184975941789588L96.09960996099609,35.85325091362166L93.71937193719371,39.10898203088794L91.63916391639162,43.73122414462148L91.84918491849184,47.076562540344625L95.92959295929592,49.152464491262116L94.53945394539453,54.67077938956436L95.87958795879587,86.26481231881577L74.54745474547454,87.09367964454182L44.51445144514451,87.31023056747925L3.82038203820382,86.14533594753995L2.09020902090209,84.26358309994568L1.26012601260126,80.4552737655287L2.0102010201020097,76.15412439959894L0.20002000200019998,71.457209553818L4.81048104810481,59.270619683683684L5.99059905990599,53.99872480113783L7.67076707670767,38.660945638603586L9.29092909290929,31.39528881039238L9.420942094209419,26.847719428706228L10.41104110411041,26.668504871792486L9.56095609560956,18.54411162503628Z" fill="#95AABC"></path>
</svg>