<?xml version="1.0" encoding="utf-8"?>
<!DOCTYPE svg PUBLIC "-//W3C//DTD SVG 1.1//EN"
  "http://www.w3.org/Graphics/SVG/1.1/DTD/svg11.dtd">
<svg version="1.1" xmlns="http://www.w3.org/2000/svg"
  width="100" height="100" viewBox="0 0 100 100">
  <path d="M44.3956089771264,91.11911191119111L45.5807076104334,92.4992499249925L44.746504103189366,96.71967196719672L46.19642924673256,99.20992099209921L41.56196531759905,99.95999599959995L40.52914192767787,98.55985598559856L42.27699689523679,94.08940894089409L44.2631957220083,95.0995099509951ZM62.026433896101466,60.6060606060606L58.9081017380702,65.39653965396539L58.927963726337914,60.346034603460346L60.21237230098349,53.1053105310531L62.07939919814871,51.59515951595159L62.49650095177072,58.81588158815882ZM74.65865843436825,43.6043604360436L72.87770015302979,44.76447644764476L72.47383972491959,49.72497249724972L73.70528299751791,56.255625562556254L72.19577188917157,60.106010601060106L67.81289314476246,61.22612261226122L66.52186390736097,65.04650465046504L65.57510913326655,64.01640164016402L62.767948124762825,65.3065306530653L62.172088476731375,63.786378637863784L64.40325182547136,61.6061606160616L66.04517618893581,61.93619361936194L65.57510913326655,57.72577257725772L66.60793252318774,54.13541354135413L69.82557462255758,47.12471247124712L69.89178125011662,45.38453845384538L74.30114264554936,41.72417241724172ZM64.19801128003832,42.004200420042004L67.19717150846328,47.334733473347335L65.98559022413266,49.99499949994999L64.4628377902745,49.66496649664966L65.31028262303036,45.39453945394539L63.09898126255808,44.06440644064406ZM82.38497187050939,52.5052505250525L83.00069350680857,59.49594959495949L76.67133991216338,64.38643864386438L76.90306310862005,61.07610761076108L74.92348494460444,54.16541654165416L75.75106778909256,48.244824482448244L74.77783036397453,45.05450545054505L76.47934069224212,39.38393839383938L81.90828415208424,41.05410541054105L81.25283853924964,47.37473747374737ZM60.444095497440166,0L60.43747483468426,14.411441144114406L64.12518398972335,13.801380138013798L63.44987638862104,22.36223622362236L65.61483310980199,27.62276227622762L70.83191536145515,30.573057305730572L73.77811028783287,35.02350235023502L70.64653680428981,33.82338233823383L73.0233547336597,39.06390639063906L70.89812198901419,43.09430943094309L68.87219918570725,38.53385338533853L67.39579139114043,42.28422842284228L66.98531030027432,39.843984398439844L68.7993718953923,34.49344934493449L64.17152862901469,33.65336533653365L60.391130195392925,25.95259525952595L59.81513253562919,32.37323732373237L61.78146937413298,35.133513351335125L62.00657190783375,37.6037603760376L60.55664676429055,40.34403440344034L58.82203312224343,38.28382838283828L54.58480895846422,38.07380738073807L55.40577114019644,40.5040504050405L58.06727756807026,40.96409640964096L58.56382727476314,49.17491749174917L54.829773480432706,50.505050505050505L57.564107198621485,56.165616561656165L57.16686743326718,62.95629562956295L56.12080271783419,65.78657865786579L54.06177660074773,67.22672267226721L54.33984443649574,69.89698969896989L51.645234694842394,74.25742574257426L48.44745458374027,73.65736573657365L39.867075652087365,75.32753275327534L31.558143893426568,78.93789378937893L27.387126357206405,79.1079107910791L19.230469841931424,81.008100810081L21.898596932561148,77.48774877487749L21.819148979490286,73.2973297329733L20.700256973742338,70.28702870287029L24.6064479997263,69.04690469046905L25.59292675035615,41.574157415741574L24.785205894135736,10.081008100810081L24.69913727830897,1.1901190119011886Z" fill="#95AABC"></path>
</svg>