<?xml version="1.0" encoding="utf-8"?>
<!DOCTYPE svg PUBLIC "-//W3C//DTD SVG 1.1//EN"
  "http://www.w3.org/Graphics/SVG/1.1/DTD/svg11.dtd">
<svg version="1.1" xmlns="http://www.w3.org/2000/svg"
  width="100" height="100" viewBox="0 0 100 100">
  <path d="M56.13561356135614,78.36642688287182L60.296029602960296,80.61145320425952L56.2956295629563,84.23065933802685ZM54.195419541954195,77.39970736369777L55.495549554955495,77.8151570744172L55.885588558855886,83.33584457647731L52.78527852785279,78.98960144895096ZM75.04750475047506,69.4582263549456L71.2871287128713,73.02949598362991L70.16701670167016,75.29050114004528L66.94669466946695,76.14536881402564L63.03630363036304,78.79785542861893L53.955395539553955,77.18399309082422L52.40524052405241,78.63007766082839L53.765376537653765,84.33452176570671L50.555055505550555,88.78462732091292L46.25462546254626,87.93774906444638L46.01460146014602,82.44901923244161L44.77447744774478,79.22928397436603L39.87398739873988,75.08277628468556L39.843984398439844,70.0494432509694L38.373837383738376,65.61531653079086L33.89338933893389,62.84298865349005L28.872887288728876,56.57129590512943L29.562956295629565,54.69378278937816L26.782678267826785,51.5219840363856L23.682368236823685,49.87616402853555L22.132213221322132,46.29690498233738L16.251625162516252,41.76690525199283L12.961296129612961,36.66965687816598L12.241224122412241,33.51383696020108L9.220922092209221,28.176906060959176L7.130713071307131,28.448546256429573L0.33003300330033003,23.135583609729167L0.030003000300030003,21.91320273011239L5.2505250525052505,15.19410260097699L13.151315131513153,12.997012784672322L16.911691169116914,11.311245689253084L22.352235223522353,10.4723568503004L48.07480748074808,11.910452002790734L47.914791479147915,14.530980947328672L50.10501050105011,12.957065697103133L53.26532653265327,17.29531940711564L52.94529452945295,20.17150971209631L76.16761676167617,20.379234567456024L99.47994799479949,43.14108506437248L93.73937393739375,47.455370521843484L87.97879787978799,55.237063180318955L86.88868886888689,61.18917922812617L79.8979897989799,64.61663934156147Z" fill="#95AABC"></path>
</svg>