<?xml version="1.0" encoding="utf-8"?>
<!DOCTYPE svg PUBLIC "-//W3C//DTD SVG 1.1//EN"
  "http://www.w3.org/Graphics/SVG/1.1/DTD/svg11.dtd">
<svg version="1.1" xmlns="http://www.w3.org/2000/svg"
  width="100" height="100" viewBox="0 0 100 100">
  <path d="M29.132913291329135,38.12281567429528L29.082908290829085,38.554757406847216L45.554555455545554,38.49409143317419L52.24522452245225,38.9114733320446L76.66766676667667,39.15656386568362L96.72967296729674,38.34363981846509L100,37.950524309063894L99.03990399039904,40.81881154432449L95.87958795879588,45.09454936879925L93.81938193819383,44.638341246778104L89.30893089308931,47.5187616767733L88.96889688968898,46.13315083808143L85.82858285828583,48.169100914548125L84.99849984998501,50.406462023609265L82.14821482148216,51.15629345820784L79.22792279227923,53.55623937671269L76.05760576057607,53.65573157353645L73.21732173217322,55.95133201732369L72.36723672367238,58.18626648743791L70.14701470147016,58.54783569052914L69.83698369836983,61.90387735412085L56.3956395639564,62.13198141513142L24.592459245924594,61.68062657100412L0.010001000100010001,60.86284924589175L2.7102710271027104,59.17390853883475L1.9901990199019903,57.25443713182026L4.520452045204521,51.19269304241166L7.530753075307531,49.30719458065406L8.94089408940894,45.15764198141919L7.830783078307832,43.34736932701614L10.371037103710371,39.9646346350083L26.742674267426743,40.43782922965789L26.612661266126615,37.86801858486858Z" fill="#95AABC"></path>
</svg>