<?xml version="1.0" encoding="utf-8"?>
<!DOCTYPE svg PUBLIC "-//W3C//DTD SVG 1.1//EN"
  "http://www.w3.org/Graphics/SVG/1.1/DTD/svg11.dtd">
<svg version="1.1" xmlns="http://www.w3.org/2000/svg"
  width="100" height="100" viewBox="0 0 100 100">
  <path d="M90.36903690369036,65.14843807527086L86.78867886788677,69.25712796691509L81.83818381838182,72.055937365581L77.85778577857783,71.76380574484483L79.13791379137913,73.46947746591731L76.08760876087607,75.56151681441506L75.74757475747572,75.91019003916469L74.36743674367435,75.83480123381341L72.06720672067206,80.28274074953836L71.34713471347132,85.691887533492L70.53705370537051,86.9923444258014L71.74717471747172,91.05391631410109L71.77717771777176,91.7135683609247L71.61716171617161,91.99627638099197L73.66736673667364,95.02125219571168L72.42724272427242,97.0850207422027L69.63696369636963,95.42646702447476L65.66656665666565,95.40761982313694L60.68606860686067,92.75016443450467L58.19581958195818,92.28840800172814L55.39553955395538,87.03946242914594L55.04550455045503,82.94019613817063L51.8151815181518,80.14138673950472L48.45484548454844,75.87249563648905L45.48454845484547,68.8424895374831L39.303930393039295,62.53810068998313L32.733273327332725,61.69940023045025L29.68296829682967,63.06582232744202L25.99259925992598,69.67176639634707L19.20192019201919,66.4677421689181L15.561556155615552,63.50873155888073L14.321432143214313,58.646153613723804L12.011201120112002,54.056860087965234L9.080908090809073,52.49254237692637L5.020502050205013,47.74304763979635L3.130313031303123,46.75356956956093L0.2500250025002429,41.86272082239728L27.112711271127104,42.776810087281426L27.902790279027894,2.8867084557905827L49.67496749674966,2.896132056459493L49.93499349934992,20.08477967654909L52.19521952195218,21.658520988256853L55.755575557555744,21.93180540765522L61.16611661166115,24.24058757153786L62.04620462046203,23.373616309998255L67.25672567256723,24.664649601638757L71.07710771077106,26.850924956825594L72.88728872887287,24.86254521568584L77.11771177117711,26.91689016150795L80.04800480048004,24.97562842371275L85.29852985298527,23.995573954146238L91.68916891689167,27.265563386257583L94.2294229422942,27.029973369534858L95.27952795279526,40.807277547479494L99.99999999999997,49.015233730099034L98.53985398539851,54.82959534281575L99.22992299229921,57.04414150000932L96.04960496049603,61.69940023045025L91.38913891389137,64.25319601172453L91.72917291729172,60.98320657961318L89.54895489548954,61.83133063981497Z" fill="#95AABC"></path>
</svg>