<?xml version="1.0" encoding="utf-8"?>
<!DOCTYPE svg PUBLIC "-//W3C//DTD SVG 1.1//EN"
  "http://www.w3.org/Graphics/SVG/1.1/DTD/svg11.dtd">
<svg version="1.1" xmlns="http://www.w3.org/2000/svg"
  width="100" height="100" viewBox="0 0 100 100">
  <path d="M93.64936493649364,53.006736265809565L94.48944894489448,50.47474783144362L98.4098409840984,49.20441801762645L92.39923992399238,59.83096536802191L91.15911591159114,60.00872483002363ZM87.14871487148714,55.369636431442174L85.018501850185,55.556067086712275L88.38883888388838,58.088055521078225L85.45854585458545,60.953884896276676L87.1987198719872,62.1635163572152L86.44864486448644,65.05969490885296L84.04840484048404,62.73147951629387L79.38793879387937,60.099772359341586L80.67806780678067,61.69527192072287L83.52835283528351,61.95974331540835L83.68836883688368,64.02782290991615L85.82858285828581,66.13925847076585L87.65876587658765,65.11172206846322L91.6091609160916,65.61898687466325L91.93919391939193,71.12085900344817L80.75807580758075,71.47204233081742L61.68616861686168,71.67581537262427L40.43404340434043,71.42435076784135L20.782078207820778,70.11933618095068L0,69.04410821567198L6.54065406540654,67.28819157882575L9.7009700970097,65.27213914392819L11.67116711671167,62.01177047501861L16.24162416241624,59.94369088051081L20.902090209020898,56.124030245790934L22.11221122112211,59.88299252763217L25.532553255325528,61.205349501059594L27.95279527952795,59.33670735172445L29.53295329532953,60.91052892993479L32.8032803280328,60.11277914924415L38.063806380638056,57.47240079902349L40.57405740574057,57.12988866492262L40.66406640664066,54.41146957528657L44.19441944194419,50.015174588219665L47.95479547954795,43.5681423931817L48.474847484748466,41.20957782418328L52.33523352335233,43.910654527282574L56.09560956095609,37.44194434907367L57.53575357535753,38.73828774269596L62.92629262926292,32.75082879088196L63.57635763576357,28.32418462737573L69.57695769576956,33.24508680717942L70.47704770477047,30.86050865837587L73.8073807380738,31.78399074145797L73.14731473147314,33.39683268937601L77.45774577457745,35.638336149251344L78.74787478747874,39.17618300274898L76.35763576357635,40.59392310212854L75.5175517551755,43.351362561472286L76.58765876587658,45.02923845890315L79.17791779177917,44.35722098060397L79.71797179717971,46.88053822170154L82.95829582958295,47.47451496058533L88.01880188018801,51.034039797253904Z" fill="#95AABC"></path>
</svg>