<?xml version="1.0" encoding="utf-8"?>
<!DOCTYPE svg PUBLIC "-//W3C//DTD SVG 1.1//EN"
  "http://www.w3.org/Graphics/SVG/1.1/DTD/svg11.dtd">
<svg version="1.1" xmlns="http://www.w3.org/2000/svg"
  width="100" height="100" viewBox="0 0 100 100">
  <path d="M40.41258946070319,0.10001000100011481L54.52781523705809,0.6300630063006452L80.73565821815606,1.4210854715202004e-14L78.81756133565489,0.520052005200526L79.97333766229022,4.4704470447044855L75.81131333711937,11.63116311631164L78.81141358923661,18.751875187518763L76.93635093166333,20.032003200320048L77.62489853050991,22.292229222922302L70.29063705351018,28.84288428842885L63.54041148624638,30.33303330333034L62.329305441846586,32.58325832583259L63.5342637398281,40.95409540954096L60.872289540715876,44.664466446644674L61.67149657509137,45.84458445844585L59.23084124703697,49.40494049404941L58.05662168114682,54.53545354535454L55.11185114679404,57.375737573757384L54.26960988749063,61.74617461746175L52.59742286172036,63.136313631363144L51.52156723852258,72.1872187218722L52.1547851196047,74.3974397439744L50.888349357440454,76.84768476847685L50.31660894054106,82.00820082008201L50.53178006518062,87.988798879888L48.22022741190996,89.71897189718972L47.0029736210919,94.43944394439444L50.107585562319784,100L23.819821877784257,99.04990499049904L23.776787652856342,95.22952295229523L25.037075668602316,65.12651265126513L23.334149910740685,60.65606560656066L21.293098099874037,60.736073607360744L20.340197405041714,63.15631563156316L19.3627057245363,60.1960196019602L21.877134009609975,54.23542354235424L20.579959515354364,52.02520252025203L21.194734157181667,49.74497449744975L19.26434178184393,42.30423042304231L20.83816486492183,35.923592359235926L23.358740896413778,32.35323532353236L22.69478428324029,28.062806280628067L23.89359483480353,25.63256325632564L23.592355260308153,22.502250225022507L21.28080260703749,18.551855185518562L21.85254302393688,11.941194119411946L22.817739211605748,9.190919091909208L21.495973731677047,7.750775077507768L22.70093202965856,4.390439043904408L22.67634104398547,0.2000200020002154Z" fill="#95AABC"></path>
</svg>