<?xml version="1.0" encoding="utf-8"?>
<!DOCTYPE svg PUBLIC "-//W3C//DTD SVG 1.1//EN"
  "http://www.w3.org/Graphics/SVG/1.1/DTD/svg11.dtd">
<svg version="1.1" xmlns="http://www.w3.org/2000/svg"
  width="100" height="100" viewBox="0 0 100 100">
  <path d="M27.142714271427156,29.42012016811851L28.162816281628174,31.064414243497225L26.192619261926204,32.263242194868965L29.682968296829696,36.23313147646062L29.632963296329645,38.62423640679222L26.792679267926804,36.22658050404875L26.622662266226637,33.7830677944222L24.842484248424856,32.57113789822673ZM26.402640264026417,29.125326409584474L28.512851285128527,28.339209720160383L28.532853285328546,22.987065259664703L24.872487248724884,20.06533156397184L25.352535253525364,18.054183033528545L37.623762376237636,18.368629709298176L58.80588058805883,18.348976792062572L81.09810981098113,17.844551916348777L95.71957195719574,17.24841342686885L96.4796479647965,35.09981324920756L97.97979797979801,64.86088091632122L97.7697769776978,66.65584735717289L99.74997499749978,69.98374134240154L99.97999799980002,73.21992171386404L73.05730573057309,74.15015979634921L71.27712771277129,75.44725233389897L60.34603460346037,77.65493003669829L57.115711571157135,79.55471203613983L53.615361536153635,80.1246466359723L51.645164516451665,79.20751049831087L44.254425442544274,81.59861542864247L39.99399939994001,79.5416100913161L36.25362536253627,79.84950579467387L29.572957295729587,82.75158657313114L23.882388238823896,80.71423415304037L23.222322232223235,74.92972551336145L22.092209220922104,72.51241669338236L19.351935193519363,70.52747205258653L17.261726172617273,71.11050859724274L14.841484148414851,68.75870950138234L11.831183118311841,67.93328697748704L9.57095709570958,69.17142076332998L6.950695069506959,68.52942546696697L7.37073707370738,61.58539471038752L7.95079507950796,66.60343957787796L9.35093509350936,65.53563107474356L8.7908790879088,62.20118611710305L10.401040104010411,60.2620982831903L7.180718071807189,59.77077535230024L6.730673067306739,56.613206649780146L10.78107810781079,55.800886070708586L6.640664066406649,54.48414061592324L4.760476047604769,48.110044459176244L3.7203720372037283,40.70744563376606L1.2901290129012974,37.890527496663076L0.7100710071007174,32.354955808635104L1.6901690169016976,28.660207368341887L8.85088508850886,32.9183394360557L16.60166016601661,34.32024753219533L20.502050205020513,33.83547557371714L22.792279227922805,35.466667704272126L24.052405240524063,34.23508489084106L26.492649264926506,38.88627530326692L22.702270227022716,43.792953639755616L24.822482248224834,42.93477625380098L27.762776277627776,38.47356404131927L28.392839283928407,41.27738023359853L26.552655265526564,42.39104554361599L27.252725272527265,44.48735671541356L27.212721272127226,50.1277439620314L24.302430243024315,52.22405513382898L23.822382238223835,47.848005562701545L21.492149214921504,53.77008462302969L23.772377237723784,52.112688602827234L25.382538253825395,53.66526906443981L27.422742274227435,49.597115196670146L30.083008300830098,49.05338448648515L28.772877287728786,43.17716223304008L31.74317431743176,36.19382564198941L29.392939293929405,30.76962048496319Z" fill="#95AABC"></path>
</svg>