<?xml version="1.0" encoding="utf-8"?>
<!DOCTYPE svg PUBLIC "-//W3C//DTD SVG 1.1//EN"
  "http://www.w3.org/Graphics/SVG/1.1/DTD/svg11.dtd">
<svg version="1.1" xmlns="http://www.w3.org/2000/svg"
  width="100" height="100" viewBox="0 0 100 100">
  <path d="M35.354767507263546,3.2503250325032553L36.32458869748615,4.230423042304238L34.30101948327169,7.060706070607068L33.91868612943394,10.831083108310835L37.00532857139239,9.090909090909108L41.64928003995829,11.991199119911997L44.306963109318296,12.671267126712678L45.74304448714791,16.271627162716285L61.334785160726604,20.522052205220533L66.07198866681391,23.122312231223134L76.55351768421968,25.10251025102511L75.97535505158697,27.22272227222723L79.97586746125519,28.57285728572859L81.47722526534979,30.273027302730284L81.40262363533267,34.0834083408341L80.0224934800159,37.24372437243725L83.73392457336776,37.473747374737485L82.37244482555526,40.62406240624063L84.83429861612032,42.96429642964297L84.24681077973548,45.21452145214522L81.41194883908481,45.97459745974598L78.89414382600691,51.235123512351244L78.6610137322034,55.075507550755084L82.31649360304242,52.76527652765277L84.63846933732538,48.404840484048414L86.60608732902699,47.95479547954796L91.20341277883219,41.33413341334134L92.6581445641661,38.21382138213822L93.14305515927738,42.53425342534254L92.04268111652482,43.12431243124313L87.47333127797604,53.41534153415342L86.00927428889001,59.4959495949595L86.17712795642854,63.17631763176318L84.54521729980397,64.43644364436443L83.28631479326502,69.30693069306932L83.89245303715414,73.67736773677368L80.88041222521281,83.05830583058307L81.3186968015634,88.42884288428843L83.59404651708566,93.35933593359336L83.03453429195723,99.64996499649965L67.34021637710501,100L37.210483053939484,99.74997499749975L36.24066186371688,97.06970697069707L30.598913593671963,94.64946494649465L29.200133030850907,90.97909790979098L28.780498862004592,85.97859785978598L30.692165631193365,83.3983398339834L28.388840304414696,81.27812781278128L27.903929709303398,72.03720372037205L24.882563693609917,66.996699669967L22.700466015609074,66.4066406640664L18.131116177060292,62.47624762476248L17.385099876889065,59.55595559555956L12.862376057100988,57.14571457145715L11.08126214044218,54.58545854585459L7.826766030945192,54.20542054205421L3.9847820850633617,49.704970497049715L4.97325368279024,46.054605460546064L5.103806535320206,38.35383538353836L6.950196878243998,35.123512351235135L5.141107350328767,32.32323232323233L3.42526985993494,32.093209320932104L3.816928417524835,28.912891289128922L6.278782208089892,25.272527252725283L11.87390445937411,22.712271227122727L12.750473612075304,21.482148214821493L13.15145737341734,8.580858085808586L16.098221759093697,6.900690069006913L17.51565272941903,8.37083708370838L20.257262632548297,8.260826082608276L31.139775411296103,4.740474047404746L33.08874299549344,2.9502950295029677Z" fill="#95AABC"></path>
</svg>