<?xml version="1.0" encoding="utf-8"?>
<!DOCTYPE svg PUBLIC "-//W3C//DTD SVG 1.1//EN"
  "http://www.w3.org/Graphics/SVG/1.1/DTD/svg11.dtd">
<svg version="1.1" xmlns="http://www.w3.org/2000/svg"
  width="100" height="100" viewBox="0 0 100 100">
  <path d="M44.11441144114411,5.88299458592499L43.83438343834383,29.47933051408708L64.67646764676468,29.603242255645327L64.46644664466444,42.93260531183892L68.39683968396838,40.58713306091508L72.11721172117211,35.975846107211986L74.9074907490749,36.87863165285059L78.29782978297828,32.45321231148486L81.13811381138112,34.356142628272124L84.96849684968495,34.69247449821592L87.10871087108708,31.50617257243259L88.8288828882888,32.046073732079215L90.51905190519051,30.05463502846463L96.46964696469644,33.559567146826296L99.22992299229921,36.93173668494698L99.63996399639962,39.896767643662024L97.88978897889785,44.52575627473058L87.31873187318729,36.05550365535657L87.49874987498748,38.96742958197522L85.93859385938592,41.481067767870954L86.27862786278627,43.7999875027466L76.97769776977697,54.35018721256251L74.44744474447444,52.11092502583145L70.17701770177015,60.57232680652273L67.99679967996798,63.48425273314138L64.67646764676468,62.30709118833809L63.46634663466345,59.90851390531787L61.2061206120612,58.837562424707365L60.33603360336033,62.970904089542955L55.615561556155605,69.40546381188874L53.91539153915391,74.2911267647565L50.61506150615061,77.31811359425066L47.83478347834783,82.03561061214654L49.36493649364936,83.70841912318278L47.134713471347126,85.32812260212265L47.71477147714771,86.78851098477334L44.064406440644056,88.95696646204254L43.344334433443336,87.43462220861274L34.19341934193419,92.13441754914314L28.5028502850285,93.59480593179383L25.72257225722572,90.87759845619527L21.532153215321532,94.17896128485411L19.221922192219225,94.24976799431596L15.531553155315533,91.93084825944031L12.711271127112715,86.96552775842797L13.861386138613865,86.08929472883754L10.121012101210125,84.96523821613064L6.860686068606865,81.84974299980918L6.430643064306436,79.30955229786524L2.6802680268026866,74.75137037625854L3.3003300330033065,74.19376753924645L0.13001300130013707,69.41431465057147L1.4801480148014867,66.22801272478813L1.2001200120012068,62.138925253366196L6.890689068906895,61.46626151347861L7.580758075807585,58.209152878233425L10.001000100010005,57.00543881738195L9.270927092709275,52.67737870152626L13.011301130113015,46.90663188038535L14.911491149114914,47.77401407129303L15.801580158015804,50.8895092876145L18.631863186318633,49.43797174364654L17.591759175917595,45.570155239292895L20.282028202820282,40.77300067325244L22.51225122512251,40.90576325349341L24.66246624662466,37.4716378445936L26.402640264026402,39.03823629143707L29.732973297329732,37.93188145609564L35.43354335433543,32.18768715100292L36.72367236723672,31.824802765010922L36.97369736973697,28.56769412976574L39.21392139213921,24.52286085175747L40.32403240324032,18.15910783887354L42.11421142114211,15.273734428303086L42.56425642564256,10.087142960222437L41.15411541154115,7.1663661949210535Z" fill="#95AABC"></path>
</svg>