<?xml version="1.0" ?><!DOCTYPE svg  PUBLIC '-//W3C//DTD SVG 1.1//EN'  'http://www.w3.org/Graphics/SVG/1.1/DTD/svg11.dtd'><svg enable-background="new 0 0 512 512" height="512px" id="Layer_1" version="1.1" viewBox="0 0 512 512" width="512px" xml:space="preserve" xmlns="http://www.w3.org/2000/svg" xmlns:xlink="http://www.w3.org/1999/xlink"><path fill='#284152' d="M109.497,9.927c-15.681,0.085-30.084,3.942-41.69,11.21c-5.821,3.687-10.984,8.304-14.885,14.125  c-3.905,5.778-6.45,12.958-6.43,20.547v387.168c-0.02,7.594,2.525,14.776,6.43,20.552c5.896,8.714,14.44,14.776,24.133,18.951  c9.542,4.061,20.391,6.279,31.945,6.377L406.645,512v-56.228l58.864-2.74V0L109.497,9.927z M285.584,302.545l-123.001-9.561  l2.807-36.143l123.003,9.565L285.584,302.545z M340.327,216.163l-213.128-17.072l2.89-36.136l213.129,17.069L340.327,216.163z   M433.328,422.323l-26.684,1.241V92.566L110.424,69.524h-0.675c-10.278,0.043-19.357-2.765-24.767-6.242  c-2.712-1.7-4.469-3.51-5.333-4.818c-0.87-1.353-0.965-2.017-0.986-2.653c0.021-0.635,0.116-1.295,0.986-2.649  c1.258-1.974,4.685-5.013,10.041-7.269c5.319-2.279,12.352-3.8,20.059-3.794h0.148l323.431-9.024V422.323z"/></svg>
