<?xml version="1.0" encoding="UTF-8" standalone="no"?>
<svg width="16px" height="16px" viewBox="0 0 16 16" version="1.1" xmlns="http://www.w3.org/2000/svg" xmlns:xlink="http://www.w3.org/1999/xlink">
  <g stroke="none" stroke-width="1" fill="none" fill-rule="evenodd">
    <g transform="translate(1.000000, 1.000000)" stroke="#FF5E50" stroke-width="0.5" fill="#FF5E50">
      <path d="M7.23387097,13.4891129 C6.94354839,13.4891129 6.75,13.2858871 6.75,12.9810484 L6.75,6.02056452 C6.75,5.71572581 6.94354839,5.5125 7.23387097,5.5125 C7.52419355,5.5125 7.71774194,5.71572581 7.71774194,6.02056452 L7.71774194,12.9810484 C7.71774194,13.2350806 7.52419355,13.4891129 7.23387097,13.4891129 Z"></path>
      <path d="M7.23387097,13.9717742 C7.08870968,13.9717742 6.99193548,13.9209677 6.89516129,13.8193548 L5.10483871,11.8887097 C4.91129032,11.6854839 4.91129032,11.3806452 5.10483871,11.1774194 C5.2983871,10.9741935 5.58870968,10.9741935 5.78225806,11.1774194 L7.23387097,12.7524194 L8.68548387,11.1774194 C8.87903226,10.9741935 9.16935484,10.9741935 9.36290323,11.1774194 C9.55645161,11.3806452 9.55645161,11.6854839 9.36290323,11.8887097 L7.57258065,13.8193548 C7.52419355,13.9209677 7.37903226,13.9717742 7.23387097,13.9717742 Z"></path>
      <path d="M11.2353874,9.30352848 L9.44506478,9.30352848 C9.1547422,9.30352848 8.96119381,9.10030268 8.96119381,8.79546397 C8.96119381,8.49062526 9.1547422,8.28739945 9.44506478,8.28739945 L11.2353874,8.28739945 C12.4934519,8.28739945 13.5095809,7.27127042 13.5095809,6.10272203 C13.5095809,5.54385106 13.2676454,4.9849801 12.8321616,4.57852848 C12.3482906,4.12127042 11.6708712,3.86723816 10.9934519,3.96885106 C10.7515164,4.01965752 10.557968,3.86723816 10.4611938,3.6132059 C10.2192583,2.74949623 9.34829059,1.78417364 7.84829059,1.98739945 C7.7031293,1.98739945 7.55796801,1.98739945 7.46119381,1.88578655 C6.59022607,1.12368977 5.42893575,0.869657516 4.36441962,1.27610913 C3.2515164,1.68256074 2.47732285,2.69868977 2.28377446,3.91804461 C2.28377446,4.07046397 2.18700027,4.17207687 2.04183898,4.27368977 C1.17087123,4.83256074 0.78377446,5.74707687 1.02570994,6.661593 C1.21925833,7.47449623 1.94506478,8.28739945 3.1063551,8.28739945 L4.50958091,8.28739945 C4.79990349,8.28739945 4.99345188,8.49062526 4.99345188,8.79546397 C4.99345188,9.10030268 4.79990349,9.30352848 4.50958091,9.30352848 L3.1063551,9.30352848 C1.7031293,9.30352848 0.493451879,8.3382059 0.106355105,6.96643171 C-0.232354573,5.69627042 0.251516395,4.37530268 1.36441962,3.56239945 C1.7031293,2.0382059 2.67087123,0.818851064 4.02570994,0.259980096 C5.33216156,-0.24808442 6.78377446,0.0059478383 7.89667769,0.869657516 C9.59022607,0.717238161 10.7515164,1.73336719 11.2353874,2.90191558 C12.057968,2.90191558 12.8805487,3.20675429 13.4611938,3.81643171 C14.0902261,4.42610913 14.4773228,5.23901235 14.4773228,6.10272203 C14.4773228,7.88094784 12.9773228,9.30352848 11.2353874,9.30352848 Z"></path>
    </g>
  </g>
</svg>
