<?xml version="1.0" encoding="UTF-8" standalone="no"?>
<svg width="19px" height="18px" viewBox="0 0 19 18" version="1.1" xmlns="http://www.w3.org/2000/svg" xmlns:xlink="http://www.w3.org/1999/xlink">
  <g stroke="none" stroke-width="1" fill="none" fill-rule="evenodd">
    <g transform="translate(-54.000000, -66.000000)" fill="#ff5e50">
      <g transform="translate(54.000000, 66.000000)">
        <path d="M0,9.11262924 C0,13.1386325 2.61072073,16.5537707 6.23171821,17.7592781 C6.68762938,17.8426287 6.85377124,17.5612504 6.85377124,17.3195896 C6.85377124,17.1036611 6.84593963,16.5302759 6.84146443,15.770051 C4.30682213,16.3205008 3.77203554,14.548321 3.77203554,14.548321 C3.35751999,13.4960892 2.76008058,13.2152703 2.76008058,13.2152703 C1.93272769,12.6502761 2.8227334,12.6614641 2.8227334,12.6614641 C3.73735273,12.7257951 4.2184369,13.600697 4.2184369,13.600697 C5.03124539,14.9930441 6.35142986,14.5908354 6.87055324,14.3581249 C6.95334447,13.7690765 7.18829255,13.3674271 7.44897305,13.1397513 C5.42562253,12.9098378 3.29822357,12.1277963 3.29822357,8.63602027 C3.29822357,7.64140672 3.6534427,6.82803883 4.23633771,6.190882 C4.14235847,5.96040912 3.82965376,5.03404239 4.32528234,3.77930774 C4.32528234,3.77930774 5.09054181,3.53429046 6.83139523,4.71350607 C7.55805609,4.5110032 8.33785996,4.41031117 9.11262924,4.40695477 C9.88627971,4.41031117 10.6660836,4.5110032 11.3938632,4.71350607 C13.1335979,3.53429046 13.8971791,3.77930774 13.8971791,3.77930774 C14.3944859,5.03404239 14.0817812,5.96040912 13.987802,6.190882 C14.5718158,6.82803883 14.9247973,7.64140672 14.9247973,8.63602027 C14.9247973,12.1367467 12.7940419,12.9070408 10.7639786,13.1324791 C11.0912277,13.4138574 11.3826752,13.9699012 11.3826752,14.8201895 C11.3826752,16.0380037 11.3714872,17.0208698 11.3714872,17.3195896 C11.3714872,17.563488 11.5353915,17.8471039 11.9980155,17.7581593 C15.6162159,16.5504143 18.2246991,13.1375137 18.2246991,9.11262924 C18.2246991,4.07970565 14.144434,0 9.11151044,0 C4.07970565,0 0,4.07970565 0,9.11262924 Z"></path>
      </g>
    </g>
  </g>
</svg>
