<svg xmlns="http://www.w3.org/2000/svg" viewBox="0 0 331.16 274.03">
  <g fill="#284152">
    <path d="M323.3,0H228.89c-31.31,0-53.05,23.24-63.31,37.25C155.32,23.24,133.58,0,102.27,0H7.85C3.52,0,0,4,0,9V132.57c0,5,3.52,9,7.85,9s7.85-4,7.85-9V18h86.56c30.37,0,50.53,29.11,55.46,37v183.1c-15.49-14.5-41.12-24.59-76.62-30.11a420.17,420.17,0,0,0-65.4-4.53V175.24c0-5-3.52-9-7.85-9s-7.85,4-7.85,9V265c0,5,3.52,9,7.85,9H323.3c4.34,0,7.85-4,7.85-9V9C331.16,4,327.64,0,323.3,0ZM228.89,18h86.56V203.51h-3.19c-17.17,0-50.65,1.08-81.9,8.3-25.43,5.88-44.47,14.71-56.93,26.37V55C178.33,47.07,198.35,18,228.89,18ZM15.71,221.52A410.45,410.45,0,0,1,79,225.87c35.5,5.52,60.5,16,72.45,30.16H15.71ZM179.6,256c21-25.21,79.82-34.53,132.66-34.53h3.19V256H179.6Z" />
  </g>
</svg>
