<?xml version="1.0" encoding="UTF-8" standalone="no"?>
<svg width="19px" height="19px" viewBox="0 0 19 19" version="1.1" xmlns="http://www.w3.org/2000/svg" xmlns:xlink="http://www.w3.org/1999/xlink">
  <g stroke="none" stroke-width="1" fill="none" fill-rule="evenodd">
    <g transform="translate(-54.000000, -13.000000)">
      <g transform="translate(54.000000, 13.000000)">
        <g>
          <path d="M19,9.5 C19,14.7467075 14.7467075,19 9.5,19 C4.2532925,19 0,14.7467075 0,9.5 C0,4.2532925 4.2532925,0 9.5,0 C14.7467075,0 19,4.2532925 19,9.5" fill="#95AABC"></path>
          <path d="M7.42928025,14.0359365 C11.6417227,14.0359365 13.9453302,10.546064 13.9453302,7.519934 C13.9453302,7.420754 13.9432877,7.322049 13.9387752,7.223819 C14.3858927,6.9005815 14.7745852,6.497259 15.0812452,6.0380765 C14.6708927,6.220334 14.2292852,6.3432165 13.7660652,6.3986015 C14.2388802,6.1151215 14.6018752,5.666484 14.7731127,5.131729 C14.3305077,5.3940715 13.8405927,5.584879 13.3189477,5.6876215 C12.9009952,5.242499 12.3058677,4.964054 11.6472327,4.964054 C10.3824027,4.964054 9.35673525,5.9897215 9.35673525,7.254029 C9.35673525,7.4338165 9.37687525,7.608569 9.41615775,7.776244 C7.51288025,7.6805315 5.82506275,6.7691965 4.69565525,5.383479 C4.49881525,5.721869 4.38552775,6.1151215 4.38552775,6.5345465 C4.38552775,7.329079 4.78984775,8.0305115 5.40464025,8.4408165 C5.02901025,8.429274 4.67603775,8.3260565 4.36738275,8.154344 C4.36686025,8.1638915 4.36686025,8.1734865 4.36686025,8.1835565 C4.36686025,9.292824 5.15640525,10.218789 6.20420775,10.428739 C6.01188025,10.481084 5.80948275,10.509299 5.60048275,10.509299 C5.45294775,10.509299 5.30945025,10.4947165 5.16999025,10.4680215 C5.46154525,11.377884 6.30695025,12.0399865 7.30943775,12.058654 C6.52545025,12.672924 5.53806775,13.038959 4.46509025,13.038959 C4.28026775,13.038959 4.09801025,13.028414 3.91874525,13.0072765 C4.93234775,13.6567915 6.13576025,14.0359365 7.42928025,14.0359365" fill="#333541"></path>
        </g>
      </g>
    </g>
  </g>
</svg>
