<?xml version="1.0" encoding="UTF-8" standalone="no"?>
<svg width="32px" height="31px" viewBox="0 0 32 31" version="1.1" xmlns="http://www.w3.org/2000/svg" xmlns:xlink="http://www.w3.org/1999/xlink">
  <path d="M31,15.2535211 C31,23.677812 24.0604175,30.5070423 15.5,30.5070423 C6.9395825,30.5070423 0,23.677812 0,15.2535211 C0,6.82923021 6.9395825,0 15.5,0 C24.0604175,0 31,6.82923021 31,15.2535211 Z M11.727715,22.5661212 C18.6006475,22.5661212 22.359165,16.9626639 22.359165,12.1038073 C22.359165,11.9445606 22.3558325,11.7860765 22.34847,11.6283551 C23.0779775,11.109354 23.71216,10.4617658 24.2125,9.72448683 C23.5429775,10.0171256 22.82246,10.2144299 22.06668,10.303358 C22.838115,9.84819289 23.43037,9.12784535 23.7097575,8.26922465 C22.9876125,8.69045063 22.1882775,8.99681761 21.3371725,9.16178444 C20.65525,8.4470807 19.6842525,8 18.6096375,8 C16.5459675,8 14.87251,9.64684641 14.87251,11.6768613 C14.87251,11.9655342 14.90537,12.2461227 14.9694625,12.5153473 C11.864115,12.3616681 9.1103075,10.8983978 7.26759,8.67344296 C6.94643,9.21677338 6.7615925,9.84819289 6.7615925,10.5216358 C6.7615925,11.7973641 7.4212725,12.9236078 8.424355,13.5824074 C7.811485,13.5638744 7.2355825,13.3981449 6.7319875,13.1224375 C6.731135,13.1377673 6.731135,13.1531733 6.731135,13.169342 C6.731135,14.9504194 8.01934,16.4371801 9.7289125,16.774283 C9.415115,16.8583299 9.0848875,16.9036328 8.7438875,16.9036328 C8.5031725,16.9036328 8.269045,16.8802187 8.041505,16.8373563 C8.5172,18.2982623 9.896545,19.3613564 11.5321825,19.3913296 C10.253045,20.3776223 8.6420525,20.9653404 6.891405,20.9653404 C6.5898525,20.9653404 6.292485,20.948409 6,20.9144699 C7.6537725,21.9573532 9.617235,22.5661212 11.727715,22.5661212 Z" fill="#a8b9c9"></path>
</svg>
