<?xml version="1.0" encoding="UTF-8" standalone="no"?>
<svg width="9px" height="13px" viewBox="0 0 9 13" version="1.1" xmlns="http://www.w3.org/2000/svg" xmlns:xlink="http://www.w3.org/1999/xlink">
  <g stroke="none" stroke-width="1" fill="none" fill-rule="evenodd">
    <g transform="translate(-59.000000, -41.000000)" fill="#31515F">
      <g transform="translate(59.000000, 41.000000)">
        <path d="M8.23179291,1.20390903 C8.09815991,1.12494407 7.93780031,1.09862242 7.77744071,1.17758738 L2.29848763,3.59917935 L1.28287682,3.07274631 L1.57686942,2.88849475 L5.90657868,0.861727555 C6.14711808,0.756440947 6.22729788,0.466902777 6.12039148,0.256329562 C6.01348508,0.019434695 5.71949248,-0.0595302607 5.50567968,0.0457563468 L0.267266004,2.49366997 C0.106906401,2.57263493 0,2.73056484 0,2.9148164 L0,11.6009615 C0,11.7852131 0.106906401,11.943143 0.267266004,12.0221079 L2.21830783,12.9170441 C2.27176103,12.9433658 2.35194083,12.9696874 2.40539403,12.9696874 C2.45884723,12.9696874 2.53902703,12.9433658 2.59248024,12.9433658 L8.15161311,10.5480954 C8.31197271,10.4691305 8.41887911,10.3112006 8.41887911,10.126949 L8.41887911,1.59873381 C8.44560572,1.41448224 8.36542591,1.28287398 8.23179291,1.20390903 L8.23179291,1.20390903 Z"></path>
      </g>
    </g>
  </g>
</svg>
